<svg width="296" height="192" viewBox="0 0 296 192" fill="none" xmlns="http://www.w3.org/2000/svg">
<g clip-path="url(#clip0_291_1723)">
<path d="M71.375 46.1562C66.5625 46.1562 62.3125 45.3125 58.625 43.625C54.9375 41.9062 52.0312 39.4219 49.9062 36.1719C47.8125 32.9219 46.7656 28.9688 46.7656 24.3125C46.7656 19.5 47.875 15.3281 50.0938 11.7969C52.3125 8.26559 55.3906 5.53119 59.3281 3.59379C63.2656 1.65624 67.8281 0.687495 73.0156 0.687495C75.2344 0.687495 77.5 0.921875 79.8125 1.39062C82.125 1.82812 84.0625 2.4219 85.625 3.1719L85.9531 13.6719L81.5469 13.9062L79.2031 7.0156C78.2031 6.4531 77.0625 6.06249 75.7812 5.84379C74.5312 5.59379 73.375 5.46879 72.3125 5.46879C67.6562 5.46879 64.1094 7.01559 61.6719 10.1094C59.2656 13.2031 58.0625 17.2812 58.0625 22.3438C58.0625 26.3125 58.7188 29.7031 60.0312 32.5156C61.375 35.3281 63.1719 37.4844 65.4219 38.9844C67.7031 40.4844 70.25 41.2344 73.0625 41.2344C73.9062 41.2344 74.875 41.125 75.9688 40.9062C77.0938 40.6875 78.1094 40.2969 79.0156 39.7344L77.3281 43.8594V35.8906C77.3281 34.7344 77.2812 33.5625 77.1875 32.375C77.125 31.1562 77.0625 30.2031 77 29.5156L71.7031 28.4375L71.9375 24.6875H90.078L90.312 28.2969L86.6094 29.4688C86.5781 29.9375 86.5625 30.7031 86.5625 31.7656C86.5938 32.7969 86.6094 33.875 86.6094 35C86.6094 36.0625 86.625 37.1719 86.6562 38.3281C86.7188 39.4531 86.7812 40.7188 86.8438 42.125C84.6875 43.4688 82.2344 44.4844 79.4844 45.1719C76.7344 45.8281 74.0312 46.1562 71.375 46.1562ZM93.031 45.5L92.891 41.8906L96.641 40.7656L112.016 3.3594L117.969 -0.015625L135.078 40.7656L138.969 41.8906L138.734 45.5H119.422L119.188 41.8906L123.969 40.7656L119.844 30.7812L119.047 28.25L111.406 9.96879L113.516 10.3906L107 28.0625L106.25 30.3125L102.641 40.7656L107.422 41.8906L107.234 45.5H93.031ZM104.469 32.5625V27.6406C105.469 27.6719 106.641 27.7344 107.984 27.8281C109.328 27.8906 111.062 27.9219 113.188 27.9219C115.25 27.9219 116.984 27.8906 118.391 27.8281C119.797 27.7344 120.984 27.6719 121.953 27.6406V32.4688C120.859 32.4688 119.609 32.4531 118.203 32.4219C116.797 32.3594 115.125 32.3281 113.188 32.3281C111.219 32.3281 109.547 32.3594 108.172 32.4219C106.828 32.4531 105.594 32.5 104.469 32.5625ZM142.25 1.34375H157.578L173.328 35.1406H171.312L185.703 1.34375H200.891L201.125 4.9531L196.391 6.0781C196.359 6.7969 196.359 7.9844 196.391 9.6406C196.422 11.2969 196.453 13.2969 196.484 15.6406L196.906 28.9062C197.031 32.1875 197.156 34.875 197.281 36.9688C197.406 39.0625 197.5 40.3281 197.562 40.7656L202.391 41.8906L202.203 45.5H182.516L182.281 41.8906L187.062 40.7656C187.125 40.2969 187.156 39.1094 187.156 37.2031C187.188 35.2656 187.188 32.5938 187.156 29.1875L186.922 3.5469H190.109L172.109 45.6875H167.75L147.922 3.5H152.141L152.234 29.3281C152.234 33.2656 152.25 36.0781 152.281 37.7656C152.312 39.4219 152.359 40.4219 152.422 40.7656L157.625 41.8906L157.438 45.5H141.219L141.031 41.8906L146.234 40.7656C146.297 40.2969 146.344 39.0312 146.375 36.9688C146.438 34.875 146.484 32.5469 146.516 29.9844L146.75 15.7344C146.812 13.2656 146.828 11.2188 146.797 9.59379C146.766 7.96879 146.75 6.8125 146.75 6.125L142.062 4.9531L142.25 1.34375ZM243.828 45.9219C242.359 45.7969 240.703 45.6875 238.859 45.5938C237.047 45.5312 235.406 45.5 233.938 45.5H208.062L207.828 41.8906L212.609 40.7656C212.734 40.4219 212.844 39.1875 212.938 37.0625C213.031 34.9375 213.078 32.3281 213.078 29.2344V17.7031C213.078 14.5156 213.031 11.8594 212.938 9.7344C212.844 7.6094 212.734 6.4062 212.609 6.125L207.828 4.9531L208.062 1.34375H231.406C232.844 1.34375 234.625 1.32811 236.75 1.29688C238.875 1.23438 240.672 1.125 242.141 0.968745L244.062 11.9375L239.891 12.5L237.125 5.9375C236.5 5.8125 235.922 5.7344 235.391 5.7031C234.859 5.6406 234.312 5.6094 233.75 5.6094H227.609C226.609 5.6094 225.688 5.625 224.844 5.6562C224 5.6875 223.297 5.74999 222.734 5.84379C222.609 7.03119 222.547 10.0781 222.547 14.9844V31.5312C222.547 36.2812 222.609 39.3125 222.734 40.625C224.234 40.8125 226.328 40.9062 229.016 40.9062H233.609C235.484 40.9062 236.703 40.8906 237.266 40.8594C237.828 40.8281 238.391 40.75 238.953 40.625L243.031 33.1719L247.156 33.9688L243.828 45.9219ZM234.453 30.4062L233.703 25.3438C233.359 25.3125 232.812 25.2812 232.062 25.25C231.312 25.1875 230.469 25.1562 229.531 25.1562H225.266C224.422 25.1562 223.609 25.1875 222.828 25.25C222.078 25.3125 221.469 25.3594 221 25.3906V20.2812C221.469 20.3125 222.078 20.3594 222.828 20.4219C223.609 20.4531 224.422 20.4688 225.266 20.4688H229.531C230.469 20.4688 231.312 20.4688 232.062 20.4688C232.812 20.4375 233.359 20.4062 233.703 20.375L234.453 15.3125H238.484V30.4062H234.453Z" fill="url(#paint0_linear_291_1723)"/>
<path d="M18.3125 126.375C15.4375 126.375 12.3333 126 9 125.25C5.6667 124.458 2.8333 123.417 0.5 122.125L0 107.562L6.125 107.188L9.375 117.312C12.2917 119.229 15.7083 120.188 19.625 120.188C22.7083 120.188 25.0625 119.521 26.6875 118.188C28.3542 116.854 29.1875 115.042 29.1875 112.75C29.1875 110.458 28.4792 108.604 27.0625 107.188C25.6875 105.729 23.8958 104.5 21.6875 103.5C19.4792 102.458 17.1458 101.438 14.6875 100.438C12.2292 99.438 9.8958 98.25 7.6875 96.875C5.4792 95.5 3.6875 93.75 2.3125 91.625C0.9375 89.4583 0.25 86.7083 0.25 83.375C0.25 78.0417 2.4375 73.7292 6.8125 70.4375C11.2292 67.1458 17.0417 65.5 24.25 65.5C26.5833 65.5 29.0833 65.75 31.75 66.25C34.4583 66.75 36.75 67.3958 38.625 68.1875L39.75 82.5L33.6875 82.875L30.5625 73.25C28.3542 72.1667 25.8958 71.625 23.1875 71.625C20.3542 71.625 18.0208 72.3333 16.1875 73.75C14.3542 75.1667 13.4375 77.1458 13.4375 79.6875C13.4375 81.9375 14.1458 83.7917 15.5625 85.25C16.9792 86.7083 18.7917 87.9792 21 89.0625C23.25 90.1042 25.625 91.1458 28.125 92.188C30.625 93.188 33 94.375 35.25 95.75C37.5 97.125 39.3333 98.854 40.75 100.938C42.1667 103.021 42.875 105.625 42.875 108.75C42.875 112.167 41.8333 115.208 39.75 117.875C37.7083 120.5 34.8333 122.583 31.125 124.125C27.4583 125.625 23.1875 126.375 18.3125 126.375ZM102.375 66.125L104.688 83.625L98.812 84.125L94.75 72.625C93.292 72.4167 91.833 72.3125 90.375 72.3125H86.9375C86.3125 72.3125 85.5833 72.3333 84.75 72.375C83.9583 72.375 83.2917 72.4167 82.75 72.5C82.7083 72.9583 82.6667 74.2083 82.625 76.25C82.625 78.2917 82.6042 80.7292 82.5625 83.5625C82.5625 86.3958 82.5625 89.25 82.5625 92.125V102.125C82.5625 106 82.6042 109.458 82.6875 112.5C82.7708 115.5 82.8333 117.729 82.875 119.188L91.562 120.5L91.25 125.5H61.0625L60.75 120.5L69.4375 119.188C69.4375 117.729 69.4792 115.5 69.5625 112.5C69.6458 109.458 69.6875 106 69.6875 102.125V92.125C69.6875 89.25 69.6667 86.3958 69.625 83.5625C69.625 80.7292 69.6042 78.2917 69.5625 76.25C69.5625 74.2083 69.5417 72.9583 69.5 72.5C69 72.4167 68.3333 72.375 67.5 72.375C66.7083 72.3333 66 72.3125 65.375 72.3125H61.875C60.2083 72.3125 58.6667 72.4167 57.25 72.625L53.4375 84.375L47.5 83.75L49.625 66.125C50.5833 66.1667 51.875 66.2292 53.5 66.3125C55.1667 66.3958 56.8542 66.4792 58.5625 66.5625C60.3125 66.6042 61.7708 66.625 62.9375 66.625H89.062C90.229 66.625 91.667 66.6042 93.375 66.5625C95.083 66.4792 96.75 66.3958 98.375 66.3125C100.042 66.2292 101.375 66.1667 102.375 66.125ZM142.438 126.375C136.312 126.375 130.875 125.125 126.125 122.625C121.417 120.083 117.708 116.583 115 112.125C112.333 107.667 111 102.542 111 96.75C111 90.7917 112.354 85.4792 115.062 80.8125C117.771 76.1458 121.5 72.4792 126.25 69.8125C131 67.1042 136.417 65.75 142.5 65.75C148.417 65.75 153.625 67 158.125 69.5C162.667 72 166.208 75.4792 168.75 79.9375C171.333 84.3958 172.625 89.5208 172.625 95.312C172.625 100.396 171.708 104.875 169.875 108.75C168.083 112.583 165.688 115.812 162.688 118.438C159.729 121.062 156.458 123.042 152.875 124.375C149.333 125.708 145.854 126.375 142.438 126.375ZM143.188 119.312C147.938 119.312 151.562 117.438 154.062 113.688C156.562 109.938 157.812 104.667 157.812 97.875C157.812 90.0833 156.312 83.8333 153.312 79.125C150.312 74.4167 146.312 72.0625 141.312 72.0625C136.562 72.0625 132.812 74.0208 130.062 77.9375C127.354 81.8125 126 87.1667 126 94C126 98.958 126.729 103.354 128.188 107.188C129.646 110.979 131.667 113.958 134.25 116.125C136.833 118.25 139.812 119.312 143.188 119.312ZM181.688 125.5L181.375 120.688L187.75 119.125C187.792 118.542 187.812 117.375 187.812 115.625C187.854 113.875 187.896 111.917 187.938 109.75C187.979 107.583 188 105.604 188 103.812V88.4375C188 84.2292 187.938 80.7083 187.812 77.875C187.688 75 187.542 73.375 187.375 73L181 71.4375L181.312 66.625H206.562C221.271 66.625 228.625 71.6667 228.625 81.75C228.625 85.0417 227.625 87.9792 225.625 90.5625C223.667 93.146 220.958 95.167 217.5 96.625C214.042 98.083 210.062 98.812 205.562 98.812H199V93.25H203.812C207.271 93.25 210.042 92.229 212.125 90.1875C214.208 88.1042 215.25 85.3333 215.25 81.875C215.25 75.3333 211.833 72.0625 205 72.0625H200.812C200.729 72.4792 200.667 74.1042 200.625 76.9375C200.625 79.7292 200.625 83.2708 200.625 87.5625V103.812C200.625 106.812 200.667 109.792 200.75 112.75C200.833 115.708 200.917 117.833 201 119.125L206.688 120.688L206.375 125.5H181.688ZM233.188 126.625C227.771 126.625 223.208 125.292 219.5 122.625C215.833 119.958 212.542 115.583 209.625 109.5L203.812 97.188L214.25 94.75L226 111.188C228.208 114.312 230.333 116.688 232.375 118.312C234.417 119.938 236.708 121.062 239.25 121.688L239.188 126.062C237.312 126.438 235.312 126.625 233.188 126.625ZM291.312 73L270.188 106.562L274.25 97.062V107C274.25 109.875 274.292 112.521 274.375 114.938C274.5 117.354 274.646 118.771 274.812 119.188L281.812 120.562L281.562 125.5H254.5L254.188 120.562L261.188 119.188C261.312 118.771 261.417 117.354 261.5 114.938C261.625 112.521 261.688 109.875 261.688 107V97.062L264.75 106.562L244.688 73L239.625 71.4375L239.875 66.625H265.375L265.688 71.4375L259.375 73L272.562 95.25H270.312L283.312 73L276.25 71.4375L276.562 66.625H296.125L296.438 71.4375L291.312 73Z" fill="#F9F5F5"/>
<path d="M66.9688 192.156C64.8125 192.156 62.4844 191.875 59.9844 191.312C57.4844 190.719 55.3594 189.938 53.6094 188.969L53.2344 178.047L57.8281 177.766L60.2656 185.359C62.4531 186.797 65.0156 187.516 67.9531 187.516C70.2656 187.516 72.0312 187.016 73.25 186.016C74.5 185.016 75.125 183.656 75.125 181.938C75.125 180.219 74.5938 178.828 73.5312 177.766C72.5 176.672 71.1562 175.75 69.5 175C67.8438 174.219 66.0938 173.453 64.25 172.703C62.4062 171.953 60.6562 171.062 59 170.031C57.3438 169 56 167.688 54.9688 166.094C53.9375 164.469 53.4219 162.406 53.4219 159.906C53.4219 155.906 55.0625 152.672 58.3438 150.203C61.6562 147.734 66.0156 146.5 71.4219 146.5C73.1719 146.5 75.0469 146.688 77.0469 147.062C79.0781 147.438 80.7969 147.922 82.2031 148.516L83.0469 159.25L78.5 159.531L76.1562 152.312C74.5 151.5 72.6562 151.094 70.625 151.094C68.5 151.094 66.75 151.625 65.375 152.688C64 153.75 63.3125 155.234 63.3125 157.141C63.3125 158.828 63.8438 160.219 64.9062 161.312C65.9688 162.406 67.3281 163.359 68.9844 164.172C70.6719 164.953 72.4531 165.734 74.3281 166.516C76.2031 167.266 77.9844 168.156 79.6719 169.188C81.3594 170.219 82.7344 171.516 83.7969 173.078C84.8594 174.641 85.3906 176.594 85.3906 178.938C85.3906 181.5 84.6094 183.781 83.0469 185.781C81.5156 187.75 79.3594 189.312 76.5781 190.469C73.8281 191.594 70.625 192.156 66.9688 192.156ZM114.594 192.156C110 192.156 105.922 191.219 102.359 189.344C98.828 187.438 96.047 184.812 94.016 181.469C92.016 178.125 91.016 174.281 91.016 169.938C91.016 165.469 92.031 161.484 94.062 157.984C96.094 154.484 98.891 151.734 102.453 149.734C106.016 147.703 110.078 146.688 114.641 146.688C119.078 146.688 122.984 147.625 126.359 149.5C129.766 151.375 132.422 153.984 134.328 157.328C136.266 160.672 137.234 164.516 137.234 168.859C137.234 172.672 136.547 176.031 135.172 178.938C133.828 181.812 132.031 184.234 129.781 186.203C127.562 188.172 125.109 189.656 122.422 190.656C119.766 191.656 117.156 192.156 114.594 192.156ZM115.156 186.859C118.719 186.859 121.438 185.453 123.312 182.641C125.188 179.828 126.125 175.875 126.125 170.781C126.125 164.938 125 160.25 122.75 156.719C120.5 153.188 117.5 151.422 113.75 151.422C110.188 151.422 107.375 152.891 105.312 155.828C103.281 158.734 102.266 162.75 102.266 167.875C102.266 171.594 102.812 174.891 103.906 177.766C105 180.609 106.516 182.844 108.453 184.469C110.391 186.062 112.625 186.859 115.156 186.859ZM179.562 178.188V165.719C179.562 161.969 179.516 158.844 179.422 156.344C179.359 153.844 179.25 152.438 179.094 152.125L173.938 150.953L174.125 147.344H189.875L190.062 150.953L185.328 152.125C185.203 152.438 185.094 153.844 185 156.344C184.906 158.812 184.859 161.938 184.859 165.719V180.625C184.859 182.844 184.859 184.844 184.859 186.625C184.859 188.375 184.859 190.109 184.859 191.828H180.5L150.641 156.531L154.297 156.484V172.375C154.297 176.531 154.328 179.859 154.391 182.359C154.484 184.859 154.609 186.328 154.766 186.766L160.016 187.891L159.781 191.5H143.797L143.609 187.891L148.344 186.766C148.469 186.328 148.578 184.812 148.672 182.219C148.766 179.594 148.812 176.312 148.812 172.375V161.875C148.812 159.688 148.75 157.641 148.625 155.734C148.531 153.797 148.438 152.594 148.344 152.125L143.609 150.953L143.797 147.344H155.469L182.328 178.188H179.562ZM221 192.156C216.188 192.156 211.938 191.312 208.25 189.625C204.562 187.906 201.656 185.422 199.531 182.172C197.438 178.922 196.391 174.969 196.391 170.312C196.391 165.5 197.5 161.328 199.719 157.797C201.938 154.266 205.016 151.531 208.953 149.594C212.891 147.656 217.453 146.688 222.641 146.688C224.859 146.688 227.125 146.922 229.438 147.391C231.75 147.828 233.688 148.422 235.25 149.172L235.578 159.672L231.172 159.906L228.828 153.016C227.828 152.453 226.688 152.062 225.406 151.844C224.156 151.594 223 151.469 221.938 151.469C217.281 151.469 213.734 153.016 211.297 156.109C208.891 159.203 207.688 163.281 207.688 168.344C207.688 172.312 208.344 175.703 209.656 178.516C211 181.328 212.797 183.484 215.047 184.984C217.328 186.484 219.875 187.234 222.688 187.234C223.531 187.234 224.5 187.125 225.594 186.906C226.719 186.688 227.734 186.297 228.641 185.734L226.953 189.859V181.891C226.953 180.734 226.906 179.562 226.812 178.375C226.75 177.156 226.688 176.203 226.625 175.516L221.328 174.438L221.562 170.688H239.703L239.938 174.297L236.234 175.469C236.203 175.938 236.188 176.703 236.188 177.766C236.219 178.797 236.234 179.875 236.234 181C236.234 182.062 236.25 183.172 236.281 184.328C236.344 185.453 236.406 186.719 236.469 188.125C234.312 189.469 231.859 190.484 229.109 191.172C226.359 191.828 223.656 192.156 221 192.156Z" fill="url(#paint1_linear_291_1723)"/>
</g>
<defs>
<linearGradient id="paint0_linear_291_1723" x1="146" y1="-45.5" x2="146" y2="93.5" gradientUnits="userSpaceOnUse">
<stop stop-color="#3F3F4C"/>
<stop offset="1"/>
</linearGradient>
<linearGradient id="paint1_linear_291_1723" x1="146" y1="239.5" x2="146" y2="100.5" gradientUnits="userSpaceOnUse">
<stop stop-color="#3F3F4C"/>
<stop offset="1"/>
</linearGradient>
<clipPath id="clip0_291_1723">
<rect width="296" height="192" fill="white"/>
</clipPath>
</defs>
</svg>
