<svg width="392" height="162" viewBox="0 0 392 162" fill="none" xmlns="http://www.w3.org/2000/svg">
<rect x="1.5" y="1.5" width="389" height="159" rx="22.5" stroke="url(#paint0_linear_276_1787)" stroke-width="3"/>
<path d="M39.2378 49.3476C36.6889 49.3476 34.4379 48.9007 32.4849 48.0069C30.5318 47.0966 29.0008 45.7725 27.8919 44.0346C26.783 42.2968 26.2285 40.1699 26.2285 37.6541C26.2285 35.1549 26.8161 32.9784 27.9912 31.1247C29.1663 29.2544 30.7884 27.8144 32.8573 26.8048C34.9427 25.7786 37.3344 25.2655 40.0322 25.2655C41.2239 25.2655 42.4321 25.3897 43.6569 25.6379C44.8817 25.8697 45.9327 26.1841 46.8099 26.5814L47.083 32.5646L44.7493 32.7384L43.359 28.6172C42.8459 28.3523 42.2584 28.1537 41.5963 28.0213C40.9508 27.8724 40.3136 27.7979 39.6846 27.7979C37.2516 27.7979 35.4062 28.6172 34.1483 30.2557C32.9069 31.8943 32.2862 34.0542 32.2862 36.7355C32.2862 38.8375 32.6338 40.6334 33.329 42.123C34.0241 43.6126 34.9593 44.7546 36.1344 45.5491C37.3095 46.327 38.6171 46.7159 40.057 46.7159C40.8019 46.7159 41.5218 46.6249 42.217 46.4428C42.9121 46.2442 43.5245 45.9463 44.0542 45.5491L45.5686 41.8499L48.0761 42.1478L46.9341 47.3863C46.0734 47.9324 44.9479 48.3959 43.5576 48.7766C42.1839 49.1572 40.7439 49.3476 39.2378 49.3476ZM56.6165 49.2979C55.4083 49.2979 54.3656 49.0497 53.4884 48.5531C52.6277 48.04 51.9574 47.4194 51.4774 46.6911C51.014 45.9629 50.7822 45.2594 50.7822 44.5808C50.7822 42.7271 52.0153 41.4278 54.4814 40.683L60.6881 38.7962V37.2817C60.6881 36.4211 60.2909 35.6514 59.4965 34.9728C58.702 34.2942 57.8 33.9549 56.7903 33.9549C56.2938 33.9549 55.9545 34.0708 55.7724 34.3025C55.5904 34.5177 55.4745 34.9232 55.4249 35.519L55.2511 37.8279C53.9932 38.0927 52.9587 38.0514 52.1477 37.7038C51.3367 37.3562 50.9312 36.7852 50.9312 35.9907C50.9312 35.4942 51.1795 34.9894 51.676 34.4763C52.1725 33.9467 52.8015 33.4584 53.5628 33.0115C54.3408 32.5481 55.1352 32.1591 55.9462 31.8447C56.7738 31.5302 57.502 31.3316 58.131 31.2488C60.4151 31.2488 62.2274 31.7867 63.5681 32.8626C64.9253 33.9218 65.6121 35.3452 65.6287 37.1328L65.5046 42.8678C65.5046 44.2415 65.6121 45.1436 65.8273 45.5739L68.4093 46.0704V47.6842L65.9266 48.7269C64.9501 49.1076 64.1639 49.2979 63.5681 49.2979C62.575 49.2979 61.8798 48.7931 61.4826 47.7835L60.8371 45.9711L61.6316 46.1201C59.9268 48.2386 58.2551 49.2979 56.6165 49.2979ZM58.4786 45.9711C59.2896 45.9711 60.0426 45.6236 60.7378 44.9284V40.9809L57.7338 41.6016C56.509 41.8168 55.8966 42.4457 55.8966 43.4884C55.8966 44.1174 56.1531 44.6884 56.6662 45.2015C57.1793 45.7146 57.7834 45.9711 58.4786 45.9711ZM83.4792 45.8222C83.0323 46.9311 82.304 47.8 81.2944 48.429C80.2848 49.0414 79.1593 49.3476 77.918 49.3476C76.1139 49.3476 74.6326 48.8262 73.474 47.7835C72.3319 46.7408 71.7609 45.1518 71.7609 43.0167L71.8602 34.0294H69.0796V32.8626L75.6339 27.5744H76.7759L76.6766 33.0115L76.6021 42.5202C76.6021 43.6953 76.8752 44.5394 77.4214 45.0525C77.9676 45.5491 78.7373 45.7973 79.7303 45.7973C80.7565 45.7973 81.6834 45.4249 82.5109 44.6801L83.4792 45.8222ZM74.8394 34.0294V31.5964H82.362V34.0294H74.8394ZM93.5092 49.2979C91.821 49.2979 90.3148 48.9255 88.9907 48.1807C87.6666 47.4194 86.6239 46.3849 85.8626 45.0774C85.1178 43.7533 84.7453 42.2471 84.7453 40.5589C84.7453 38.7051 85.1591 37.0831 85.9867 35.6928C86.8308 34.286 87.9315 33.1936 89.2887 32.4157C90.6459 31.6212 92.0858 31.2323 93.6085 31.2488C95.9092 31.2488 97.6884 31.9605 98.9463 33.3839C100.221 34.8073 100.858 36.7024 100.858 39.0693V39.9879H89.0156V37.9521H97.1588L96.5381 38.8458V37.5797C96.5381 36.2556 96.2485 35.2294 95.6692 34.5011C95.1064 33.7563 94.3202 33.3839 93.3106 33.3839C92.301 33.3839 91.432 33.8225 90.7038 34.6997C89.9921 35.5604 89.6362 36.868 89.6362 38.6224V39.392C89.6362 41.2954 90.141 42.8264 91.1507 43.985C92.1768 45.127 93.534 45.698 95.2223 45.698C96.116 45.698 96.9353 45.5325 97.6801 45.2015C98.4249 44.8539 99.1449 44.2746 99.8401 43.4636L101.007 44.6057C100.262 46.1615 99.2359 47.3366 97.9284 48.1311C96.6209 48.909 95.1478 49.2979 93.5092 49.2979ZM111.782 58.0618C109.018 58.0618 106.858 57.6728 105.302 56.8949C103.763 56.117 102.993 55.0577 102.993 53.7171C102.993 52.8399 103.44 52.0206 104.334 51.2592C105.244 50.4979 106.51 49.8607 108.132 49.3476L109.796 49.5462C109.134 50.0096 108.604 50.5393 108.207 51.1351C107.809 51.7475 107.611 52.3764 107.611 53.0219C107.611 53.9488 108 54.6688 108.778 55.1819C109.572 55.695 110.689 55.9515 112.129 55.9515C113.619 55.9515 114.852 55.6288 115.829 54.9833C116.805 54.3378 117.293 53.535 117.293 52.5751C117.293 51.8634 117.037 51.3254 116.524 50.9613C116.011 50.6137 115.158 50.3903 113.967 50.291L109.001 49.8441L108.604 49.6455C107.313 49.6455 106.295 49.3972 105.55 48.9007C104.822 48.3876 104.458 47.7256 104.458 46.9145C104.458 46.1035 104.863 45.3339 105.674 44.6057C106.502 43.8774 107.627 43.2898 109.051 42.8429L109.647 43.5133C108.935 44.0264 108.579 44.4898 108.579 44.9036C108.579 45.5491 109.009 45.9132 109.87 45.996L115.878 46.5918C117.831 46.7904 119.279 47.3035 120.223 48.1311C121.166 48.9586 121.638 50.051 121.638 51.4082C121.638 52.6495 121.208 53.775 120.347 54.7847C119.486 55.7943 118.311 56.5887 116.822 57.168C115.349 57.7639 113.669 58.0618 111.782 58.0618ZM111.956 44.2581C109.589 44.2581 107.685 43.6788 106.245 42.5202C104.805 41.3451 104.085 39.8058 104.085 37.9024C104.085 36.6114 104.433 35.4611 105.128 34.4515C105.84 33.4418 106.8 32.6474 108.008 32.0681C109.233 31.4888 110.598 31.1992 112.105 31.1992C113.594 31.1992 114.918 31.4971 116.077 32.0929C117.235 32.6722 118.146 33.4584 118.808 34.4515C119.486 35.4445 119.826 36.57 119.826 37.8279C119.826 39.7148 119.089 41.2623 117.616 42.4705C116.143 43.6622 114.256 44.2581 111.956 44.2581ZM112.278 42.0733C113.122 42.0733 113.801 41.7092 114.314 40.9809C114.827 40.2361 115.084 39.2265 115.084 37.9521C115.084 36.5783 114.802 35.4694 114.24 34.6253C113.693 33.7811 112.965 33.3591 112.055 33.3591C111.211 33.3591 110.516 33.7646 109.969 34.5756C109.44 35.3701 109.175 36.3962 109.175 37.6541C109.175 38.9782 109.456 40.0458 110.019 40.8568C110.598 41.6678 111.351 42.0733 112.278 42.0733ZM122.06 34.7246L116.797 34.228L115.58 32.4157L122.06 31.646V34.7246ZM133.406 49.2979C131.569 49.2979 129.955 48.9255 128.565 48.1807C127.174 47.4194 126.09 46.3766 125.312 45.0525C124.534 43.7119 124.146 42.1726 124.146 40.4347C124.146 38.5148 124.584 36.868 125.461 35.4942C126.339 34.1204 127.497 33.0694 128.937 32.3412C130.377 31.6129 131.916 31.2488 133.555 31.2488C135.309 31.2488 136.849 31.6295 138.173 32.3908C139.497 33.1357 140.531 34.1701 141.276 35.4942C142.021 36.8183 142.393 38.3493 142.393 40.0872C142.393 41.825 141.988 43.3891 141.177 44.7794C140.382 46.1697 139.306 47.2704 137.949 48.0814C136.592 48.8924 135.078 49.2979 133.406 49.2979ZM133.803 46.8897C134.862 46.8897 135.69 46.3932 136.286 45.4001C136.882 44.3905 137.18 43.0085 137.18 41.254C137.18 38.97 136.791 37.1162 136.013 35.6928C135.235 34.2694 134.217 33.5577 132.959 33.5577C131.883 33.5577 131.023 34.0791 130.377 35.1218C129.748 36.1645 129.434 37.5879 129.434 39.392C129.434 41.5437 129.847 43.3312 130.675 44.7546C131.503 46.178 132.545 46.8897 133.803 46.8897ZM144.702 49L144.578 47.2621L147.061 46.567C147.077 46.4015 147.102 45.9463 147.135 45.2015C147.185 44.4401 147.226 43.5546 147.259 42.545L147.309 39.5161C147.309 38.7217 147.276 37.9934 147.21 37.3314C147.143 36.6693 147.061 36.0073 146.961 35.3452L144.404 34.7742V33.0612L151.033 31.3233L152.001 31.9688L151.827 35.1963L151.952 35.2211C152.696 33.7315 153.466 32.7219 154.26 32.1922C155.072 31.646 155.883 31.3729 156.694 31.3729C157.389 31.3729 157.993 31.5716 158.506 31.9688C159.036 32.3495 159.3 32.937 159.3 33.7315C159.3 34.5591 159.019 35.2046 158.456 35.668C157.91 36.1149 157.256 36.3383 156.495 36.3383C155.883 36.3383 155.328 36.2307 154.832 36.0156C154.335 35.8004 153.805 35.4032 153.243 34.8239L154.335 34.9728C153.458 35.5521 152.705 36.4873 152.076 37.7783L152.125 41.0058C152.142 42.3961 152.167 43.6043 152.2 44.6305C152.233 45.6401 152.274 46.2856 152.324 46.567L155.775 47.1876L155.676 49H144.702ZM168.834 49.149L161.56 33.9798L159.722 33.3094L159.847 31.5467H169.554L169.678 33.3094L167.195 33.9798L171.838 44.1339L168.834 49.149ZM179.807 31.5467L179.931 33.3094L178.069 33.9798L171.143 47.8083L167.99 54.3874C167.278 55.8274 166.558 56.7956 165.83 57.2922C165.102 57.8053 164.315 58.0618 163.471 58.0618C162.627 58.0618 161.949 57.8549 161.435 57.4411C160.939 57.0439 160.691 56.5391 160.691 55.9267C160.691 54.6688 161.584 53.7916 163.372 53.295L167.89 52.0289L165.383 53.8909L170.125 45.0277L170.646 44.1091L175.065 33.9798L172.583 33.3094L172.707 31.5467H179.807Z" fill="#E6E7EE"/>
<path d="M37.5192 71.1755L32.9511 82.0662H31.5773L25.652 68.097L24.3113 67.6832L24.3775 66.4087H30.8325L30.8987 67.6832L29.5746 68.097L33.8117 78.6236H32.62L36.4434 68.8583L37.5192 71.1755ZM41.3922 82.0662L35.4338 68.097L34.0931 67.6832L34.1759 66.4087H40.8129L40.8957 67.6832L39.224 68.097L43.4776 78.6236H42.4846L46.4238 68.097L44.5866 67.6832L44.6693 66.4087H50.0154L50.0981 67.6832L48.7078 68.097L42.7659 82.0662H41.3922ZM57.2317 82.1986C56.0069 82.1986 54.9311 81.9503 54.0042 81.4538C53.0774 80.9462 52.3546 80.2511 51.836 79.3684C51.3174 78.4746 51.0581 77.4484 51.0581 76.2898C51.0581 75.0099 51.3505 73.912 51.9353 72.9961C52.5201 72.0803 53.2925 71.3796 54.2525 70.8941C55.2125 70.4086 56.2386 70.1659 57.331 70.1659C58.5006 70.1659 59.5268 70.4197 60.4096 70.9272C61.2923 71.4238 61.9819 72.1134 62.4785 72.9961C62.975 73.8789 63.2233 74.8995 63.2233 76.0581C63.2233 77.2167 62.9529 78.2594 62.4123 79.1863C61.8826 80.1132 61.1654 80.8469 60.2606 81.3876C59.3558 81.9283 58.3462 82.1986 57.2317 82.1986ZM57.4965 80.5931C58.2027 80.5931 58.7544 80.2621 59.1517 79.6001C59.5489 78.927 59.7475 78.0056 59.7475 76.836C59.7475 75.3133 59.4882 74.0775 58.9696 73.1285C58.451 72.1796 57.7724 71.7051 56.9338 71.7051C56.2166 71.7051 55.6428 72.0527 55.2125 72.7479C54.7932 73.443 54.5835 74.392 54.5835 75.5947C54.5835 77.0291 54.8594 78.2208 55.4111 79.1697C55.9628 80.1187 56.6579 80.5931 57.4965 80.5931ZM64.7625 82L64.6798 80.8414L66.3349 80.378C66.3459 80.2676 66.3625 79.9642 66.3845 79.4677C66.4176 78.9601 66.4452 78.3698 66.4673 77.6967L66.5004 75.6774C66.5004 75.1478 66.4783 74.6623 66.4342 74.2209C66.3901 73.7796 66.3349 73.3382 66.2687 72.8968L64.5639 72.5161V71.3741L68.9831 70.2155L69.6286 70.6459L69.5127 72.7975L69.5955 72.8141C70.092 71.821 70.6051 71.1479 71.1347 70.7948C71.6754 70.4307 72.2161 70.2486 72.7568 70.2486C73.2202 70.2486 73.6229 70.381 73.965 70.6459C74.3181 70.8996 74.4946 71.2914 74.4946 71.821C74.4946 72.3727 74.3071 72.803 73.9319 73.112C73.5678 73.4099 73.1319 73.5589 72.6244 73.5589C72.2161 73.5589 71.8464 73.4872 71.5154 73.3437C71.1844 73.2003 70.8313 72.9354 70.4561 72.5493L71.1844 72.6486C70.5996 73.0348 70.0975 73.6582 69.6782 74.5188L69.7113 76.6705C69.7224 77.5974 69.7389 78.4029 69.761 79.087C69.7831 79.7601 69.8106 80.1904 69.8438 80.378L72.1444 80.7918L72.0782 82H64.7625ZM85.0212 82.3145L84.3426 81.9503L84.3757 80.2125L84.293 80.1628C83.8295 80.9352 83.322 81.4759 82.7703 81.7848C82.2185 82.0828 81.6558 82.2317 81.082 82.2317C80.1331 82.2317 79.2559 82 78.4504 81.5366C77.6559 81.0621 77.0215 80.4 76.547 79.5504C76.0725 78.7008 75.8353 77.7132 75.8353 76.5877C75.8353 75.2747 76.1442 74.1437 76.7622 73.1947C77.3801 72.2348 78.1745 71.4955 79.1455 70.9769C80.1165 70.4583 81.1317 70.199 82.191 70.199C82.5551 70.199 82.9303 70.2376 83.3164 70.3148C83.7026 70.381 84.0226 70.4859 84.2764 70.6293C84.2764 70.1769 84.2654 69.6528 84.2433 69.0569C84.2323 68.4501 84.2212 67.8818 84.2102 67.3522C84.1992 66.8115 84.1826 66.4198 84.1606 66.177L82.1744 65.8626L82.1082 64.7702L86.9743 63.4957L87.6529 63.9426C87.5977 65.046 87.548 66.0722 87.5039 67.0211C87.4708 67.959 87.4543 68.9466 87.4543 69.9838L87.4212 76.1574C87.4212 77.0291 87.4432 77.7408 87.4874 78.2925C87.5315 78.8442 87.5701 79.3132 87.6032 79.6994L89.3576 80.0966V81.1724L85.0212 82.3145ZM82.2572 79.8152C82.5661 79.8152 82.9082 79.727 83.2833 79.5504C83.6585 79.3628 83.995 79.0539 84.293 78.6236V72.7313C84.0392 72.3672 83.7302 72.1079 83.3661 71.9534C83.002 71.7879 82.6378 71.7051 82.2737 71.7051C81.38 71.7051 80.6572 72.0693 80.1055 72.7975C79.5538 73.5147 79.2779 74.4802 79.2779 75.694C79.2779 77.0291 79.5704 78.0498 80.1552 78.756C80.74 79.4621 81.4406 79.8152 82.2572 79.8152Z" fill="#BFC0C8"/>
<rect x="24" y="98" width="328" height="3" rx="1.5" fill="url(#paint1_linear_276_1787)"/>
<path d="M25.25 138L25.1523 136.496L27.125 136.027C27.1771 135.884 27.2227 135.37 27.2617 134.484C27.3008 133.586 27.3203 132.499 27.3203 131.223V126.418C27.3203 125.103 27.3008 123.996 27.2617 123.098C27.2227 122.199 27.1771 121.691 27.125 121.574L25.1523 121.105L25.25 119.602H33.3945L33.4727 121.105L31.5 121.574C31.4349 121.717 31.3828 122.232 31.3438 123.117C31.3177 124.003 31.3047 125.103 31.3047 126.418V131.223C31.3047 132.486 31.3177 133.566 31.3438 134.465C31.3828 135.35 31.4349 135.871 31.5 136.027L33.4727 136.496L33.3945 138H25.25ZM46.207 135.5C45.8555 136.372 45.2826 137.056 44.4883 137.551C43.694 138.033 42.8086 138.273 41.832 138.273C40.4128 138.273 39.2474 137.863 38.3359 137.043C37.4375 136.223 36.9883 134.973 36.9883 133.293L37.0664 126.223H34.8789V125.305L40.0352 121.145H40.9336L40.8555 125.422L40.7969 132.902C40.7969 133.827 41.0117 134.491 41.4414 134.895C41.8711 135.285 42.4766 135.48 43.2578 135.48C44.0651 135.48 44.7943 135.188 45.4453 134.602L46.207 135.5ZM39.4102 126.223V124.309H45.3281V126.223H39.4102ZM58.082 138.234C57.1315 138.234 56.3112 138.039 55.6211 137.648C54.944 137.245 54.4167 136.757 54.0391 136.184C53.6745 135.611 53.4922 135.057 53.4922 134.523C53.4922 133.065 54.4622 132.043 56.4023 131.457L61.2852 129.973V128.781C61.2852 128.104 60.9727 127.499 60.3477 126.965C59.7227 126.431 59.013 126.164 58.2188 126.164C57.8281 126.164 57.5612 126.255 57.418 126.438C57.2747 126.607 57.1836 126.926 57.1445 127.395L57.0078 129.211C56.0182 129.419 55.2044 129.387 54.5664 129.113C53.9284 128.84 53.6094 128.391 53.6094 127.766C53.6094 127.375 53.8047 126.978 54.1953 126.574C54.5859 126.158 55.0807 125.773 55.6797 125.422C56.2917 125.057 56.9167 124.751 57.5547 124.504C58.2057 124.257 58.7786 124.1 59.2734 124.035C61.0703 124.035 62.4961 124.458 63.5508 125.305C64.6185 126.138 65.1589 127.258 65.1719 128.664L65.0742 133.176C65.0742 134.257 65.1589 134.966 65.3281 135.305L67.3594 135.695V136.965L65.4062 137.785C64.638 138.085 64.0195 138.234 63.5508 138.234C62.7695 138.234 62.2227 137.837 61.9102 137.043L61.4023 135.617L62.0273 135.734C60.6862 137.401 59.3711 138.234 58.082 138.234ZM59.5469 135.617C60.1849 135.617 60.7773 135.344 61.3242 134.797V131.691L58.9609 132.18C57.9974 132.349 57.5156 132.844 57.5156 133.664C57.5156 134.159 57.7174 134.608 58.1211 135.012C58.5247 135.415 59 135.617 59.5469 135.617ZM68.2383 138L68.1406 136.574L70.1719 136.086C70.2109 135.76 70.25 135.064 70.2891 133.996C70.3411 132.928 70.3672 131.809 70.3672 130.637V126.672C70.3672 125.695 70.3607 124.719 70.3477 123.742C70.3346 122.766 70.3151 121.88 70.2891 121.086C70.263 120.292 70.2305 119.686 70.1914 119.27L67.8672 118.957L67.8086 117.668L73.5508 116.164L74.3711 116.691C74.332 117.564 74.2995 118.417 74.2734 119.25C74.2474 120.083 74.2279 121.027 74.2148 122.082C74.2148 123.124 74.2148 124.4 74.2148 125.91L74.1758 130.598C74.1758 132.017 74.1823 133.234 74.1953 134.25C74.2214 135.253 74.2604 135.865 74.3125 136.086L76.3438 136.574L76.2852 138H68.2383ZM77.457 138L77.3594 136.574L79.3906 136.086C79.4297 135.76 79.4688 135.064 79.5078 133.996C79.5599 132.928 79.5859 131.809 79.5859 130.637V126.672C79.5859 125.695 79.5794 124.719 79.5664 123.742C79.5534 122.766 79.5339 121.88 79.5078 121.086C79.4818 120.292 79.4492 119.686 79.4102 119.27L77.0859 118.957L77.0273 117.668L82.7695 116.164L83.5898 116.691C83.5508 117.564 83.5182 118.417 83.4922 119.25C83.4661 120.083 83.4466 121.027 83.4336 122.082C83.4336 123.124 83.4336 124.4 83.4336 125.91L83.3945 130.598C83.3945 132.017 83.401 133.234 83.4141 134.25C83.4401 135.253 83.4792 135.865 83.5312 136.086L85.5625 136.574L85.5039 138H77.457ZM98.2773 138.234C97.418 138.234 96.5651 138.143 95.7188 137.961C94.8724 137.766 94.1628 137.512 93.5898 137.199L93.4336 133.586H95.3672L96.0312 135.852C96.7865 136.32 97.6133 136.555 98.5117 136.555C99.1497 136.555 99.6445 136.418 99.9961 136.145C100.361 135.871 100.543 135.507 100.543 135.051C100.543 134.556 100.354 134.139 99.9766 133.801C99.612 133.462 98.8633 133.072 97.7305 132.629C96.207 132.056 95.1393 131.444 94.5273 130.793C93.9154 130.129 93.6094 129.302 93.6094 128.312C93.6094 127.062 94.1693 126.04 95.2891 125.246C96.4219 124.439 97.8932 124.035 99.7031 124.035C100.354 124.035 101.012 124.1 101.676 124.23C102.353 124.348 102.919 124.504 103.375 124.699L103.727 128.273H101.793L101.109 126.066C100.641 125.793 100.094 125.656 99.4688 125.656C98.8177 125.656 98.2969 125.806 97.9062 126.105C97.5286 126.392 97.3398 126.763 97.3398 127.219C97.3398 127.753 97.5677 128.195 98.0234 128.547C98.4792 128.885 99.319 129.309 100.543 129.816C101.923 130.376 102.9 130.975 103.473 131.613C104.059 132.251 104.352 133.033 104.352 133.957C104.352 135.246 103.785 136.281 102.652 137.062C101.533 137.844 100.074 138.234 98.2773 138.234ZM116.754 135.5C116.402 136.372 115.829 137.056 115.035 137.551C114.241 138.033 113.355 138.273 112.379 138.273C110.96 138.273 109.794 137.863 108.883 137.043C107.984 136.223 107.535 134.973 107.535 133.293L107.613 126.223H105.426V125.305L110.582 121.145H111.48L111.402 125.422L111.344 132.902C111.344 133.827 111.559 134.491 111.988 134.895C112.418 135.285 113.023 135.48 113.805 135.48C114.612 135.48 115.341 135.188 115.992 134.602L116.754 135.5ZM109.957 126.223V124.309H115.875V126.223H109.957ZM122.574 138.234C121.624 138.234 120.803 138.039 120.113 137.648C119.436 137.245 118.909 136.757 118.531 136.184C118.167 135.611 117.984 135.057 117.984 134.523C117.984 133.065 118.954 132.043 120.895 131.457L125.777 129.973V128.781C125.777 128.104 125.465 127.499 124.84 126.965C124.215 126.431 123.505 126.164 122.711 126.164C122.32 126.164 122.053 126.255 121.91 126.438C121.767 126.607 121.676 126.926 121.637 127.395L121.5 129.211C120.51 129.419 119.697 129.387 119.059 129.113C118.421 128.84 118.102 128.391 118.102 127.766C118.102 127.375 118.297 126.978 118.688 126.574C119.078 126.158 119.573 125.773 120.172 125.422C120.784 125.057 121.409 124.751 122.047 124.504C122.698 124.257 123.271 124.1 123.766 124.035C125.562 124.035 126.988 124.458 128.043 125.305C129.111 126.138 129.651 127.258 129.664 128.664L129.566 133.176C129.566 134.257 129.651 134.966 129.82 135.305L131.852 135.695V136.965L129.898 137.785C129.13 138.085 128.512 138.234 128.043 138.234C127.262 138.234 126.715 137.837 126.402 137.043L125.895 135.617L126.52 135.734C125.178 137.401 123.863 138.234 122.574 138.234ZM124.039 135.617C124.677 135.617 125.27 135.344 125.816 134.797V131.691L123.453 132.18C122.49 132.349 122.008 132.844 122.008 133.664C122.008 134.159 122.21 134.608 122.613 135.012C123.017 135.415 123.492 135.617 124.039 135.617ZM132.848 138L132.75 136.633L134.703 136.086C134.716 135.956 134.736 135.598 134.762 135.012C134.801 134.413 134.833 133.716 134.859 132.922L134.898 130.539C134.898 129.914 134.872 129.341 134.82 128.82C134.768 128.299 134.703 127.779 134.625 127.258L132.613 126.809V125.461L137.828 124.094L138.59 124.602L138.453 127.141L138.551 127.16C139.137 125.988 139.742 125.194 140.367 124.777C141.005 124.348 141.643 124.133 142.281 124.133C142.828 124.133 143.303 124.289 143.707 124.602C144.124 124.901 144.332 125.363 144.332 125.988C144.332 126.639 144.111 127.147 143.668 127.512C143.238 127.863 142.724 128.039 142.125 128.039C141.643 128.039 141.207 127.954 140.816 127.785C140.426 127.616 140.009 127.303 139.566 126.848L140.426 126.965C139.736 127.421 139.143 128.156 138.648 129.172L138.688 131.711C138.701 132.805 138.72 133.755 138.746 134.562C138.772 135.357 138.805 135.865 138.844 136.086L141.559 136.574L141.48 138H132.848ZM156.363 135.5C156.012 136.372 155.439 137.056 154.645 137.551C153.85 138.033 152.965 138.273 151.988 138.273C150.569 138.273 149.404 137.863 148.492 137.043C147.594 136.223 147.145 134.973 147.145 133.293L147.223 126.223H145.035V125.305L150.191 121.145H151.09L151.012 125.422L150.953 132.902C150.953 133.827 151.168 134.491 151.598 134.895C152.027 135.285 152.633 135.48 153.414 135.48C154.221 135.48 154.951 135.188 155.602 134.602L156.363 135.5ZM149.566 126.223V124.309H155.484V126.223H149.566ZM162.34 138.234C161.48 138.234 160.628 138.143 159.781 137.961C158.935 137.766 158.225 137.512 157.652 137.199L157.496 133.586H159.43L160.094 135.852C160.849 136.32 161.676 136.555 162.574 136.555C163.212 136.555 163.707 136.418 164.059 136.145C164.423 135.871 164.605 135.507 164.605 135.051C164.605 134.556 164.417 134.139 164.039 133.801C163.674 133.462 162.926 133.072 161.793 132.629C160.27 132.056 159.202 131.444 158.59 130.793C157.978 130.129 157.672 129.302 157.672 128.312C157.672 127.062 158.232 126.04 159.352 125.246C160.484 124.439 161.956 124.035 163.766 124.035C164.417 124.035 165.074 124.1 165.738 124.23C166.415 124.348 166.982 124.504 167.438 124.699L167.789 128.273H165.855L165.172 126.066C164.703 125.793 164.156 125.656 163.531 125.656C162.88 125.656 162.359 125.806 161.969 126.105C161.591 126.392 161.402 126.763 161.402 127.219C161.402 127.753 161.63 128.195 162.086 128.547C162.542 128.885 163.382 129.309 164.605 129.816C165.986 130.376 166.962 130.975 167.535 131.613C168.121 132.251 168.414 133.033 168.414 133.957C168.414 135.246 167.848 136.281 166.715 137.062C165.595 137.844 164.137 138.234 162.34 138.234ZM192.066 138.117L186.754 126.184L185.25 125.656L185.328 124.27H192.652L192.711 125.656L191.07 126.184L194.352 134.172L193.551 134.152L196.93 126.184L195.289 125.656L195.367 124.27H200.641L200.719 125.656L199.234 126.184L193.375 138.117H192.066ZM182.262 138.117L176.773 126.184L175.309 125.656L175.387 124.27H182.652L182.73 125.656L181.227 126.184L184.664 134.172L183.766 134.152L187.438 126.105L188.531 128.156L183.57 138.117H182.262ZM201.109 138L201.012 136.574L203.102 136.086C203.115 135.969 203.134 135.624 203.16 135.051C203.199 134.478 203.232 133.768 203.258 132.922L203.277 130.637C203.277 129.96 203.251 129.354 203.199 128.82C203.16 128.286 203.102 127.766 203.023 127.258L200.914 126.809V125.461L206.441 124.094L207.242 124.621C207.177 125.285 207.125 125.949 207.086 126.613C207.06 127.277 207.047 128.033 207.047 128.879V132.863C207.047 133.605 207.06 134.289 207.086 134.914C207.112 135.539 207.158 135.93 207.223 136.086L209.293 136.574L209.215 138H201.109ZM205.211 121.379C204.417 121.379 203.785 121.138 203.316 120.656C202.861 120.174 202.633 119.608 202.633 118.957C202.633 118.306 202.861 117.74 203.316 117.258C203.785 116.763 204.417 116.516 205.211 116.516C206.005 116.516 206.624 116.763 207.066 117.258C207.509 117.74 207.73 118.306 207.73 118.957C207.73 119.608 207.509 120.174 207.066 120.656C206.624 121.138 206.005 121.379 205.211 121.379ZM221.285 135.5C220.934 136.372 220.361 137.056 219.566 137.551C218.772 138.033 217.887 138.273 216.91 138.273C215.491 138.273 214.326 137.863 213.414 137.043C212.516 136.223 212.066 134.973 212.066 133.293L212.145 126.223H209.957V125.305L215.113 121.145H216.012L215.934 125.422L215.875 132.902C215.875 133.827 216.09 134.491 216.52 134.895C216.949 135.285 217.555 135.48 218.336 135.48C219.143 135.48 219.872 135.188 220.523 134.602L221.285 135.5ZM214.488 126.223V124.309H220.406V126.223H214.488ZM221.812 138L221.715 136.633L223.648 136.086C223.688 135.747 223.727 135.051 223.766 133.996C223.818 132.928 223.844 131.809 223.844 130.637V126.691C223.844 125.728 223.837 124.758 223.824 123.781C223.811 122.805 223.792 121.919 223.766 121.125C223.74 120.318 223.707 119.699 223.668 119.27L221.344 118.957L221.285 117.668L226.949 116.164L227.789 116.691C227.737 117.538 227.691 118.378 227.652 119.211C227.626 120.044 227.6 121.027 227.574 122.16C227.548 123.28 227.522 124.706 227.496 126.438L227.594 126.457C228.896 124.842 230.426 124.035 232.184 124.035C233.473 124.035 234.573 124.517 235.484 125.48C236.396 126.444 236.852 127.837 236.852 129.66V132.902C236.852 133.618 236.865 134.289 236.891 134.914C236.917 135.526 236.956 135.917 237.008 136.086L238.941 136.633L238.844 138H231.285L231.188 136.633L232.965 136.086C233.004 135.812 233.036 135.383 233.062 134.797C233.089 134.211 233.102 133.605 233.102 132.98V130.207C233.102 128.996 232.828 128.124 232.281 127.59C231.747 127.056 231.116 126.789 230.387 126.789C229.254 126.789 228.316 127.277 227.574 128.254V132.863C227.574 133.671 227.587 134.374 227.613 134.973C227.652 135.559 227.691 135.93 227.73 136.086L229.625 136.633L229.547 138H221.812ZM251.402 138.234C250.452 138.234 249.632 138.039 248.941 137.648C248.264 137.245 247.737 136.757 247.359 136.184C246.995 135.611 246.812 135.057 246.812 134.523C246.812 133.065 247.783 132.043 249.723 131.457L254.605 129.973V128.781C254.605 128.104 254.293 127.499 253.668 126.965C253.043 126.431 252.333 126.164 251.539 126.164C251.148 126.164 250.882 126.255 250.738 126.438C250.595 126.607 250.504 126.926 250.465 127.395L250.328 129.211C249.339 129.419 248.525 129.387 247.887 129.113C247.249 128.84 246.93 128.391 246.93 127.766C246.93 127.375 247.125 126.978 247.516 126.574C247.906 126.158 248.401 125.773 249 125.422C249.612 125.057 250.237 124.751 250.875 124.504C251.526 124.257 252.099 124.1 252.594 124.035C254.391 124.035 255.816 124.458 256.871 125.305C257.939 126.138 258.479 127.258 258.492 128.664L258.395 133.176C258.395 134.257 258.479 134.966 258.648 135.305L260.68 135.695V136.965L258.727 137.785C257.958 138.085 257.34 138.234 256.871 138.234C256.09 138.234 255.543 137.837 255.23 137.043L254.723 135.617L255.348 135.734C254.007 137.401 252.691 138.234 251.402 138.234ZM252.867 135.617C253.505 135.617 254.098 135.344 254.645 134.797V131.691L252.281 132.18C251.318 132.349 250.836 132.844 250.836 133.664C250.836 134.159 251.038 134.608 251.441 135.012C251.845 135.415 252.32 135.617 252.867 135.617ZM283.785 138.117L278.473 126.184L276.969 125.656L277.047 124.27H284.371L284.43 125.656L282.789 126.184L286.07 134.172L285.27 134.152L288.648 126.184L287.008 125.656L287.086 124.27H292.359L292.438 125.656L290.953 126.184L285.094 138.117H283.785ZM273.98 138.117L268.492 126.184L267.027 125.656L267.105 124.27H274.371L274.449 125.656L272.945 126.184L276.383 134.172L275.484 134.152L279.156 126.105L280.25 128.156L275.289 138.117H273.98ZM300.68 138.234C299.234 138.234 297.965 137.941 296.871 137.355C295.777 136.757 294.924 135.936 294.312 134.895C293.701 133.84 293.395 132.629 293.395 131.262C293.395 129.751 293.74 128.456 294.43 127.375C295.12 126.294 296.031 125.467 297.164 124.895C298.297 124.322 299.508 124.035 300.797 124.035C302.177 124.035 303.388 124.335 304.43 124.934C305.471 125.52 306.285 126.333 306.871 127.375C307.457 128.417 307.75 129.621 307.75 130.988C307.75 132.355 307.431 133.586 306.793 134.68C306.168 135.773 305.322 136.639 304.254 137.277C303.186 137.915 301.995 138.234 300.68 138.234ZM300.992 136.34C301.826 136.34 302.477 135.949 302.945 135.168C303.414 134.374 303.648 133.286 303.648 131.906C303.648 130.109 303.342 128.651 302.73 127.531C302.118 126.411 301.318 125.852 300.328 125.852C299.482 125.852 298.805 126.262 298.297 127.082C297.802 127.902 297.555 129.022 297.555 130.441C297.555 132.134 297.88 133.54 298.531 134.66C299.182 135.78 300.003 136.34 300.992 136.34ZM309.566 138L309.469 136.633L311.422 136.086C311.435 135.956 311.454 135.598 311.48 135.012C311.52 134.413 311.552 133.716 311.578 132.922L311.617 130.539C311.617 129.914 311.591 129.341 311.539 128.82C311.487 128.299 311.422 127.779 311.344 127.258L309.332 126.809V125.461L314.547 124.094L315.309 124.602L315.172 127.141L315.27 127.16C315.855 125.988 316.461 125.194 317.086 124.777C317.724 124.348 318.362 124.133 319 124.133C319.547 124.133 320.022 124.289 320.426 124.602C320.842 124.901 321.051 125.363 321.051 125.988C321.051 126.639 320.829 127.147 320.387 127.512C319.957 127.863 319.443 128.039 318.844 128.039C318.362 128.039 317.926 127.954 317.535 127.785C317.145 127.616 316.728 127.303 316.285 126.848L317.145 126.965C316.454 127.421 315.862 128.156 315.367 129.172L315.406 131.711C315.419 132.805 315.439 133.755 315.465 134.562C315.491 135.357 315.523 135.865 315.562 136.086L318.277 136.574L318.199 138H309.566ZM333.473 138.371L332.672 137.941L332.711 135.891L332.613 135.832C332.066 136.743 331.467 137.382 330.816 137.746C330.165 138.098 329.501 138.273 328.824 138.273C327.704 138.273 326.669 138 325.719 137.453C324.781 136.893 324.033 136.112 323.473 135.109C322.913 134.107 322.633 132.941 322.633 131.613C322.633 130.064 322.997 128.729 323.727 127.609C324.456 126.477 325.393 125.604 326.539 124.992C327.685 124.38 328.883 124.074 330.133 124.074C330.562 124.074 331.005 124.12 331.461 124.211C331.917 124.289 332.294 124.413 332.594 124.582C332.594 124.048 332.581 123.43 332.555 122.727C332.542 122.01 332.529 121.34 332.516 120.715C332.503 120.077 332.483 119.615 332.457 119.328L330.113 118.957L330.035 117.668L335.777 116.164L336.578 116.691C336.513 117.993 336.454 119.204 336.402 120.324C336.363 121.431 336.344 122.596 336.344 123.82L336.305 131.105C336.305 132.134 336.331 132.974 336.383 133.625C336.435 134.276 336.48 134.829 336.52 135.285L338.59 135.754V137.023L333.473 138.371ZM330.211 135.422C330.576 135.422 330.979 135.318 331.422 135.109C331.865 134.888 332.262 134.523 332.613 134.016V127.062C332.314 126.633 331.949 126.327 331.52 126.145C331.09 125.949 330.66 125.852 330.23 125.852C329.176 125.852 328.323 126.281 327.672 127.141C327.021 127.987 326.695 129.126 326.695 130.559C326.695 132.134 327.04 133.339 327.73 134.172C328.421 135.005 329.247 135.422 330.211 135.422ZM343.336 138.312C342.568 138.312 341.91 138.059 341.363 137.551C340.829 137.03 340.562 136.385 340.562 135.617C340.562 134.849 340.829 134.204 341.363 133.684C341.91 133.15 342.568 132.883 343.336 132.883C344.117 132.883 344.775 133.15 345.309 133.684C345.842 134.204 346.109 134.849 346.109 135.617C346.109 136.385 345.842 137.03 345.309 137.551C344.775 138.059 344.117 138.312 343.336 138.312ZM352.008 138.312C351.24 138.312 350.582 138.059 350.035 137.551C349.501 137.03 349.234 136.385 349.234 135.617C349.234 134.849 349.501 134.204 350.035 133.684C350.582 133.15 351.24 132.883 352.008 132.883C352.789 132.883 353.447 133.15 353.98 133.684C354.514 134.204 354.781 134.849 354.781 135.617C354.781 136.385 354.514 137.03 353.98 137.551C353.447 138.059 352.789 138.312 352.008 138.312ZM360.68 138.312C359.911 138.312 359.254 138.059 358.707 137.551C358.173 137.03 357.906 136.385 357.906 135.617C357.906 134.849 358.173 134.204 358.707 133.684C359.254 133.15 359.911 132.883 360.68 132.883C361.461 132.883 362.118 133.15 362.652 133.684C363.186 134.204 363.453 134.849 363.453 135.617C363.453 136.385 363.186 137.03 362.652 137.551C362.118 138.059 361.461 138.312 360.68 138.312Z" fill="#BFC0C8"/>
<defs>
<linearGradient id="paint0_linear_276_1787" x1="82" y1="-52" x2="134.5" y2="65.5" gradientUnits="userSpaceOnUse">
<stop stop-color="#1B1E2F"/>
<stop offset="1" stop-color="#565E95" stop-opacity="0"/>
</linearGradient>
<linearGradient id="paint1_linear_276_1787" x1="24" y1="99.5" x2="352" y2="99.5" gradientUnits="userSpaceOnUse">
<stop stop-color="#1B1E2F"/>
<stop offset="0.600962" stop-color="#0E0F19" stop-opacity="0"/>
</linearGradient>
</defs>
</svg>
