<svg width="439" height="317" viewBox="0 0 439 317" fill="none" xmlns="http://www.w3.org/2000/svg">
<rect x="2" y="2" width="373" height="217" rx="10" stroke="#1B1E2F" stroke-width="4"/>
<path d="M38.25 48.3281C35.8438 48.3281 33.7188 47.9062 31.875 47.0625C30.0312 46.2031 28.5859 44.9531 27.5391 43.3125C26.4922 41.6719 25.9688 39.6641 25.9688 37.2891C25.9688 34.9297 26.5234 32.875 27.6328 31.125C28.7422 29.3594 30.2734 28 32.2266 27.0469C34.1953 26.0781 36.4531 25.5938 39 25.5938C40.125 25.5938 41.2656 25.7109 42.4219 25.9453C43.5781 26.1641 44.5703 26.4609 45.3984 26.8359L45.6562 32.4844L43.4531 32.6484L42.1406 28.7578C41.6562 28.5078 41.1016 28.3203 40.4766 28.1953C39.8672 28.0547 39.2656 27.9844 38.6719 27.9844C36.375 27.9844 34.6328 28.7578 33.4453 30.3047C32.2734 31.8516 31.6875 33.8906 31.6875 36.4219C31.6875 38.4062 32.0156 40.1016 32.6719 41.5078C33.3281 42.9141 34.2109 43.9922 35.3203 44.7422C36.4297 45.4766 37.6641 45.8438 39.0234 45.8438C39.7266 45.8438 40.4062 45.7578 41.0625 45.5859C41.7188 45.3984 42.2969 45.1172 42.7969 44.7422L44.2266 41.25L46.5938 41.5312L45.5156 46.4766C44.7031 46.9922 43.6406 47.4297 42.3281 47.7891C41.0312 48.1484 39.6719 48.3281 38.25 48.3281ZM54.6562 48.2812C53.5156 48.2812 52.5312 48.0469 51.7031 47.5781C50.8906 47.0938 50.2578 46.5078 49.8047 45.8203C49.3672 45.1328 49.1484 44.4688 49.1484 43.8281C49.1484 42.0781 50.3125 40.8516 52.6406 40.1484L58.5 38.3672V36.9375C58.5 36.125 58.125 35.3984 57.375 34.7578C56.625 34.1172 55.7734 33.7969 54.8203 33.7969C54.3516 33.7969 54.0312 33.9062 53.8594 34.125C53.6875 34.3281 53.5781 34.7109 53.5312 35.2734L53.3672 37.4531C52.1797 37.7031 51.2031 37.6641 50.4375 37.3359C49.6719 37.0078 49.2891 36.4688 49.2891 35.7188C49.2891 35.25 49.5234 34.7734 49.9922 34.2891C50.4609 33.7891 51.0547 33.3281 51.7734 32.9062C52.5078 32.4688 53.2578 32.1016 54.0234 31.8047C54.8047 31.5078 55.4922 31.3203 56.0859 31.2422C58.2422 31.2422 59.9531 31.75 61.2188 32.7656C62.5 33.7656 63.1484 35.1094 63.1641 36.7969L63.0469 42.2109C63.0469 43.5078 63.1484 44.3594 63.3516 44.7656L65.7891 45.2344V46.7578L63.4453 47.7422C62.5234 48.1016 61.7812 48.2812 61.2188 48.2812C60.2812 48.2812 59.625 47.8047 59.25 46.8516L58.6406 45.1406L59.3906 45.2812C57.7812 47.2812 56.2031 48.2812 54.6562 48.2812ZM56.4141 45.1406C57.1797 45.1406 57.8906 44.8125 58.5469 44.1562V40.4297L55.7109 41.0156C54.5547 41.2188 53.9766 41.8125 53.9766 42.7969C53.9766 43.3906 54.2188 43.9297 54.7031 44.4141C55.1875 44.8984 55.7578 45.1406 56.4141 45.1406ZM80.0156 45C79.5938 46.0469 78.9062 46.8672 77.9531 47.4609C77 48.0391 75.9375 48.3281 74.7656 48.3281C73.0625 48.3281 71.6641 47.8359 70.5703 46.8516C69.4922 45.8672 68.9531 44.3672 68.9531 42.3516L69.0469 33.8672H66.4219V32.7656L72.6094 27.7734H73.6875L73.5938 32.9062L73.5234 41.8828C73.5234 42.9922 73.7812 43.7891 74.2969 44.2734C74.8125 44.7422 75.5391 44.9766 76.4766 44.9766C77.4453 44.9766 78.3203 44.625 79.1016 43.9219L80.0156 45ZM71.8594 33.8672V31.5703H78.9609V33.8672H71.8594ZM89.4844 48.2812C87.8906 48.2812 86.4688 47.9297 85.2188 47.2266C83.9688 46.5078 82.9844 45.5312 82.2656 44.2969C81.5625 43.0469 81.2109 41.625 81.2109 40.0312C81.2109 38.2812 81.6016 36.75 82.3828 35.4375C83.1797 34.1094 84.2188 33.0781 85.5 32.3438C86.7812 31.5938 88.1406 31.2266 89.5781 31.2422C91.75 31.2422 93.4297 31.9141 94.6172 33.2578C95.8203 34.6016 96.4219 36.3906 96.4219 38.625V39.4922H85.2422V37.5703H92.9297L92.3438 38.4141V37.2188C92.3438 35.9688 92.0703 35 91.5234 34.3125C90.9922 33.6094 90.25 33.2578 89.2969 33.2578C88.3438 33.2578 87.5234 33.6719 86.8359 34.5C86.1641 35.3125 85.8281 36.5469 85.8281 38.2031V38.9297C85.8281 40.7266 86.3047 42.1719 87.2578 43.2656C88.2266 44.3438 89.5078 44.8828 91.1016 44.8828C91.9453 44.8828 92.7188 44.7266 93.4219 44.4141C94.125 44.0859 94.8047 43.5391 95.4609 42.7734L96.5625 43.8516C95.8594 45.3203 94.8906 46.4297 93.6562 47.1797C92.4219 47.9141 91.0312 48.2812 89.4844 48.2812ZM106.734 56.5547C104.125 56.5547 102.086 56.1875 100.617 55.4531C99.1641 54.7188 98.4375 53.7188 98.4375 52.4531C98.4375 51.625 98.8594 50.8516 99.7031 50.1328C100.562 49.4141 101.758 48.8125 103.289 48.3281L104.859 48.5156C104.234 48.9531 103.734 49.4531 103.359 50.0156C102.984 50.5938 102.797 51.1875 102.797 51.7969C102.797 52.6719 103.164 53.3516 103.898 53.8359C104.648 54.3203 105.703 54.5625 107.062 54.5625C108.469 54.5625 109.633 54.2578 110.555 53.6484C111.477 53.0391 111.938 52.2812 111.938 51.375C111.938 50.7031 111.695 50.1953 111.211 49.8516C110.727 49.5234 109.922 49.3125 108.797 49.2188L104.109 48.7969L103.734 48.6094C102.516 48.6094 101.555 48.375 100.852 47.9062C100.164 47.4219 99.8203 46.7969 99.8203 46.0312C99.8203 45.2656 100.203 44.5391 100.969 43.8516C101.75 43.1641 102.812 42.6094 104.156 42.1875L104.719 42.8203C104.047 43.3047 103.711 43.7422 103.711 44.1328C103.711 44.7422 104.117 45.0859 104.93 45.1641L110.602 45.7266C112.445 45.9141 113.812 46.3984 114.703 47.1797C115.594 47.9609 116.039 48.9922 116.039 50.2734C116.039 51.4453 115.633 52.5078 114.82 53.4609C114.008 54.4141 112.898 55.1641 111.492 55.7109C110.102 56.2734 108.516 56.5547 106.734 56.5547ZM106.898 43.5234C104.664 43.5234 102.867 42.9766 101.508 41.8828C100.148 40.7734 99.4688 39.3203 99.4688 37.5234C99.4688 36.3047 99.7969 35.2188 100.453 34.2656C101.125 33.3125 102.031 32.5625 103.172 32.0156C104.328 31.4688 105.617 31.1953 107.039 31.1953C108.445 31.1953 109.695 31.4766 110.789 32.0391C111.883 32.5859 112.742 33.3281 113.367 34.2656C114.008 35.2031 114.328 36.2656 114.328 37.4531C114.328 39.2344 113.633 40.6953 112.242 41.8359C110.852 42.9609 109.07 43.5234 106.898 43.5234ZM107.203 41.4609C108 41.4609 108.641 41.1172 109.125 40.4297C109.609 39.7266 109.852 38.7734 109.852 37.5703C109.852 36.2734 109.586 35.2266 109.055 34.4297C108.539 33.6328 107.852 33.2344 106.992 33.2344C106.195 33.2344 105.539 33.6172 105.023 34.3828C104.523 35.1328 104.273 36.1016 104.273 37.2891C104.273 38.5391 104.539 39.5469 105.07 40.3125C105.617 41.0781 106.328 41.4609 107.203 41.4609ZM116.438 34.5234L111.469 34.0547L110.32 32.3438L116.438 31.6172V34.5234ZM127.148 48.2812C125.414 48.2812 123.891 47.9297 122.578 47.2266C121.266 46.5078 120.242 45.5234 119.508 44.2734C118.773 43.0078 118.406 41.5547 118.406 39.9141C118.406 38.1016 118.82 36.5469 119.648 35.25C120.477 33.9531 121.57 32.9609 122.93 32.2734C124.289 31.5859 125.742 31.2422 127.289 31.2422C128.945 31.2422 130.398 31.6016 131.648 32.3203C132.898 33.0234 133.875 34 134.578 35.25C135.281 36.5 135.633 37.9453 135.633 39.5859C135.633 41.2266 135.25 42.7031 134.484 44.0156C133.734 45.3281 132.719 46.3672 131.438 47.1328C130.156 47.8984 128.727 48.2812 127.148 48.2812ZM127.523 46.0078C128.523 46.0078 129.305 45.5391 129.867 44.6016C130.43 43.6484 130.711 42.3438 130.711 40.6875C130.711 38.5312 130.344 36.7812 129.609 35.4375C128.875 34.0938 127.914 33.4219 126.727 33.4219C125.711 33.4219 124.898 33.9141 124.289 34.8984C123.695 35.8828 123.398 37.2266 123.398 38.9297C123.398 40.9609 123.789 42.6484 124.57 43.9922C125.352 45.3359 126.336 46.0078 127.523 46.0078ZM137.812 48L137.695 46.3594L140.039 45.7031C140.055 45.5469 140.078 45.1172 140.109 44.4141C140.156 43.6953 140.195 42.8594 140.227 41.9062L140.273 39.0469C140.273 38.2969 140.242 37.6094 140.18 36.9844C140.117 36.3594 140.039 35.7344 139.945 35.1094L137.531 34.5703V32.9531L143.789 31.3125L144.703 31.9219L144.539 34.9688L144.656 34.9922C145.359 33.5859 146.086 32.6328 146.836 32.1328C147.602 31.6172 148.367 31.3594 149.133 31.3594C149.789 31.3594 150.359 31.5469 150.844 31.9219C151.344 32.2812 151.594 32.8359 151.594 33.5859C151.594 34.3672 151.328 34.9766 150.797 35.4141C150.281 35.8359 149.664 36.0469 148.945 36.0469C148.367 36.0469 147.844 35.9453 147.375 35.7422C146.906 35.5391 146.406 35.1641 145.875 34.6172L146.906 34.7578C146.078 35.3047 145.367 36.1875 144.773 37.4062L144.82 40.4531C144.836 41.7656 144.859 42.9062 144.891 43.875C144.922 44.8281 144.961 45.4375 145.008 45.7031L148.266 46.2891L148.172 48H137.812ZM160.594 48.1406L153.727 33.8203L151.992 33.1875L152.109 31.5234H161.273L161.391 33.1875L159.047 33.8203L163.43 43.4062L160.594 48.1406ZM170.953 31.5234L171.07 33.1875L169.312 33.8203L162.773 46.875L159.797 53.0859C159.125 54.4453 158.445 55.3594 157.758 55.8281C157.07 56.3125 156.328 56.5547 155.531 56.5547C154.734 56.5547 154.094 56.3594 153.609 55.9688C153.141 55.5938 152.906 55.1172 152.906 54.5391C152.906 53.3516 153.75 52.5234 155.438 52.0547L159.703 50.8594L157.336 52.6172L161.812 44.25L162.305 43.3828L166.477 33.8203L164.133 33.1875L164.25 31.5234H170.953Z" fill="#E6E7EE"/>
<path d="M62.1463 124.154H71.9927C76.1479 124.154 79.3734 125.141 81.6693 127.113C83.9813 129.07 85.1373 131.81 85.1373 135.335C85.1373 137.614 84.5876 139.635 83.4882 141.398C82.4049 143.144 80.9094 144.518 79.0015 145.521C77.0937 146.507 74.8948 147 72.4049 147H62.1463L62.025 145.375L64.426 144.842C64.4907 144.615 64.5472 143.952 64.5958 142.853C64.6443 141.737 64.6685 140.452 64.6685 138.997V132.23C64.6685 130.646 64.6443 129.312 64.5958 128.229C64.5472 127.146 64.4907 126.515 64.426 126.337L62.025 125.804L62.1463 124.154ZM68.6701 126.41C68.6701 126.749 68.6539 127.34 68.6216 128.18C68.6054 129.021 68.5974 130.371 68.5974 132.23V138.997C68.5974 140.129 68.6135 141.188 68.6459 142.174C68.6782 143.16 68.7267 143.928 68.7914 144.478C70.3273 144.72 71.637 144.842 72.7202 144.842C77.9587 144.842 80.5779 142.053 80.5779 136.475C80.5779 132.998 79.7695 130.412 78.1527 128.714C76.5521 127 74.3532 126.143 71.5561 126.143C71.1358 126.143 70.683 126.167 70.198 126.216C69.713 126.248 69.2037 126.313 68.6701 126.41ZM88.2901 147L88.1931 145.496L90.5941 144.866C90.6264 144.688 90.6587 144.276 90.6911 143.629C90.7396 142.966 90.7719 142.028 90.7881 140.816L90.8366 137.833C90.8366 136.992 90.7962 136.192 90.7153 135.432C90.6506 134.672 90.5698 134.017 90.4728 133.467L87.9991 132.909V131.479L93.7226 129.926L94.4016 130.509L94.2561 133.71L94.3774 133.734C95.1373 132.279 95.9134 131.293 96.7056 130.775C97.4978 130.242 98.2658 129.975 99.0096 129.975C99.6563 129.975 100.19 130.137 100.61 130.46C101.047 130.783 101.265 131.277 101.265 131.939C101.265 132.635 101.031 133.168 100.562 133.54C100.109 133.912 99.535 134.098 98.8398 134.098C97.8374 134.098 96.9077 133.669 96.0508 132.812L96.8754 133.007C95.9376 133.605 95.113 134.656 94.4016 136.159L94.4502 139.579C94.4825 140.711 94.5148 141.786 94.5472 142.804C94.5957 143.807 94.6442 144.494 94.6927 144.866L98.0637 145.424L97.991 147H88.2901ZM112.057 147.291C109.47 147.291 107.385 146.491 105.8 144.89C104.216 143.289 103.423 141.22 103.423 138.682C103.423 136.871 103.828 135.31 104.636 134.001C105.444 132.675 106.512 131.656 107.837 130.945C109.179 130.218 110.643 129.854 112.227 129.854C114.701 129.854 116.689 130.646 118.193 132.23C119.713 133.815 120.473 135.884 120.473 138.439C120.473 140.104 120.101 141.608 119.357 142.95C118.613 144.276 117.603 145.335 116.326 146.127C115.064 146.903 113.642 147.291 112.057 147.291ZM112.445 145.302C113.658 145.302 114.62 144.761 115.331 143.677C116.043 142.578 116.398 141.123 116.398 139.312C116.398 137.065 115.97 135.254 115.113 133.88C114.256 132.489 113.124 131.794 111.718 131.794C110.457 131.794 109.446 132.352 108.686 133.467C107.926 134.567 107.546 136.046 107.546 137.905C107.546 140.056 108.007 141.826 108.929 143.217C109.85 144.607 111.022 145.302 112.445 145.302ZM122.971 155.561L122.849 154.033L125.25 153.403C125.283 153.144 125.315 152.441 125.347 151.293C125.396 150.145 125.428 148.601 125.444 146.66L125.541 137.663C125.541 136.887 125.501 136.135 125.42 135.407C125.355 134.664 125.275 134.017 125.178 133.467L122.68 132.909V131.479L128.452 129.926L129.276 130.581L129.034 132.764L129.155 132.812C129.834 131.875 130.618 131.147 131.507 130.63C132.397 130.112 133.351 129.854 134.369 129.854C135.727 129.854 136.956 130.201 138.056 130.897C139.155 131.576 140.028 132.53 140.675 133.758C141.321 134.987 141.645 136.418 141.645 138.051C141.645 139.781 141.249 141.341 140.456 142.732C139.68 144.122 138.605 145.23 137.231 146.054C135.873 146.863 134.305 147.267 132.526 147.267C131.362 147.267 130.238 147.065 129.155 146.66V149.449C129.155 150.387 129.171 151.212 129.203 151.923C129.236 152.635 129.268 153.128 129.3 153.403L132.502 153.96L132.381 155.561H122.971ZM132.647 145.108C134.119 145.108 135.299 144.591 136.188 143.556C137.094 142.505 137.562 140.969 137.595 138.948C137.627 137.073 137.182 135.585 136.261 134.486C135.355 133.37 134.232 132.812 132.89 132.812C131.402 132.812 130.157 133.475 129.155 134.801V144.017C130.077 144.745 131.241 145.108 132.647 145.108ZM170.747 147.146L164.563 132.303L162.623 131.673L162.696 130.169H170.602L170.675 131.673L168.637 132.303L173.003 143.386H171.984L176.471 132.303L174.458 131.673L174.531 130.169H180.788L180.861 131.673L179.042 132.303L172.154 147.146H170.747ZM159.106 147.146L152.607 132.303L150.788 131.673L150.861 130.169H158.767L158.84 131.673L156.899 132.303L161.532 143.386H160.367L165.291 132.061L166.479 134.51L160.465 147.146H159.106ZM190.925 147.291C188.338 147.291 186.253 146.491 184.668 144.89C183.084 143.289 182.291 141.22 182.291 138.682C182.291 136.871 182.696 135.31 183.504 134.001C184.312 132.675 185.38 131.656 186.705 130.945C188.047 130.218 189.511 129.854 191.095 129.854C193.569 129.854 195.557 130.646 197.061 132.23C198.581 133.815 199.341 135.884 199.341 138.439C199.341 140.104 198.969 141.608 198.225 142.95C197.481 144.276 196.471 145.335 195.194 146.127C193.932 146.903 192.51 147.291 190.925 147.291ZM191.313 145.302C192.526 145.302 193.488 144.761 194.199 143.677C194.911 142.578 195.266 141.123 195.266 139.312C195.266 137.065 194.838 135.254 193.981 133.88C193.124 132.489 191.992 131.794 190.586 131.794C189.325 131.794 188.314 132.352 187.554 133.467C186.794 134.567 186.414 136.046 186.414 137.905C186.414 140.056 186.875 141.826 187.797 143.217C188.718 144.607 189.89 145.302 191.313 145.302ZM201.936 147L201.839 145.496L204.24 144.866C204.272 144.688 204.304 144.276 204.337 143.629C204.385 142.966 204.417 142.028 204.434 140.816L204.482 137.833C204.482 136.992 204.442 136.192 204.361 135.432C204.296 134.672 204.215 134.017 204.118 133.467L201.645 132.909V131.479L207.368 129.926L208.047 130.509L207.902 133.71L208.023 133.734C208.783 132.279 209.559 131.293 210.351 130.775C211.143 130.242 211.911 129.975 212.655 129.975C213.302 129.975 213.835 130.137 214.256 130.46C214.692 130.783 214.911 131.277 214.911 131.939C214.911 132.635 214.676 133.168 214.207 133.54C213.755 133.912 213.181 134.098 212.485 134.098C211.483 134.098 210.553 133.669 209.696 132.812L210.521 133.007C209.583 133.605 208.759 134.656 208.047 136.159L208.096 139.579C208.128 140.711 208.16 141.786 208.193 142.804C208.241 143.807 208.29 144.494 208.338 144.866L211.709 145.424L211.637 147H201.936ZM230.432 147.412L229.68 146.927L229.729 144.405L229.607 144.357C228.864 145.44 228.088 146.2 227.279 146.636C226.471 147.073 225.622 147.291 224.733 147.291C223.294 147.291 221.984 146.951 220.804 146.272C219.64 145.577 218.718 144.623 218.039 143.411C217.36 142.198 217.021 140.791 217.021 139.191C217.021 137.299 217.449 135.658 218.306 134.268C219.179 132.861 220.295 131.778 221.653 131.018C223.011 130.258 224.442 129.878 225.945 129.878C226.592 129.878 227.255 129.951 227.934 130.096C228.613 130.242 229.187 130.468 229.656 130.775C229.656 130.145 229.648 129.328 229.632 128.326C229.615 127.307 229.591 126.345 229.559 125.44C229.543 124.518 229.518 123.896 229.486 123.572L226.503 123.063L226.406 121.632L232.687 119.959L233.488 120.541C233.423 122.158 233.366 123.694 233.318 125.149C233.286 126.604 233.269 128.132 233.269 129.732L233.221 138.73C233.221 140.056 233.253 141.163 233.318 142.053C233.399 142.942 233.455 143.597 233.488 144.017L236.034 144.648V146.03L230.432 147.412ZM225.994 144.357C226.641 144.357 227.263 144.211 227.861 143.92C228.459 143.613 229.058 143.087 229.656 142.344V133.904C229.203 133.144 228.645 132.602 227.983 132.279C227.32 131.956 226.657 131.794 225.994 131.794C224.49 131.794 223.294 132.368 222.405 133.516C221.515 134.664 221.071 136.175 221.071 138.051C221.071 140.056 221.548 141.608 222.502 142.707C223.455 143.807 224.62 144.357 225.994 144.357ZM245.371 147L245.25 145.496L247.675 144.866C247.724 144.494 247.772 143.694 247.821 142.465C247.869 141.236 247.894 139.676 247.894 137.784V132.909C247.894 131.729 247.885 130.484 247.869 129.175C247.853 127.849 247.829 126.661 247.797 125.61C247.78 124.559 247.748 123.831 247.699 123.427L244.813 123.039L244.741 121.632L250.852 119.959L251.701 120.541C251.653 121.608 251.612 122.683 251.58 123.766C251.548 124.834 251.523 126.07 251.507 127.477C251.491 128.867 251.467 130.606 251.434 132.691L251.556 132.715C253.221 130.808 255.088 129.854 257.158 129.854C258.645 129.854 259.955 130.428 261.087 131.576C262.235 132.707 262.809 134.429 262.809 136.741V140.864C262.809 141.77 262.833 142.602 262.881 143.362C262.93 144.106 262.986 144.607 263.051 144.866L265.452 145.496L265.331 147H256.891L256.77 145.496L259.025 144.866C259.058 144.575 259.09 144.106 259.122 143.459C259.171 142.812 259.195 142.012 259.195 141.058V137.154C259.195 135.569 258.815 134.421 258.055 133.71C257.295 132.998 256.438 132.643 255.484 132.643C253.868 132.643 252.542 133.362 251.507 134.801V140.597C251.507 142.926 251.572 144.348 251.701 144.866L254.078 145.496L254.005 147H245.371ZM275.953 147.291C274.401 147.291 273.003 146.943 271.758 146.248C270.529 145.553 269.551 144.575 268.823 143.314C268.112 142.053 267.756 140.573 267.756 138.876C267.756 137.049 268.144 135.456 268.92 134.098C269.696 132.74 270.707 131.689 271.952 130.945C273.213 130.201 274.563 129.838 276.002 129.854C278.152 129.87 279.801 130.565 280.949 131.939C282.113 133.298 282.695 135.141 282.695 137.469V138.245H270.933V136.426H279.737L279.227 137.081V136.111C279.227 134.688 278.912 133.589 278.281 132.812C277.651 132.036 276.786 131.648 275.686 131.648C274.619 131.648 273.674 132.117 272.849 133.055C272.041 133.977 271.636 135.375 271.636 137.251V137.833C271.636 139.854 272.146 141.446 273.164 142.61C274.199 143.774 275.549 144.357 277.214 144.357C278.12 144.357 278.928 144.187 279.64 143.847C280.351 143.508 281.046 142.926 281.725 142.101L282.768 143.071C282.024 144.494 281.07 145.553 279.906 146.248C278.742 146.943 277.425 147.291 275.953 147.291ZM285.121 147L285.024 145.496L287.425 144.866C287.457 144.688 287.489 144.276 287.522 143.629C287.57 142.966 287.602 142.028 287.619 140.816L287.667 137.833C287.667 136.992 287.627 136.192 287.546 135.432C287.481 134.672 287.4 134.017 287.303 133.467L284.83 132.909V131.479L290.553 129.926L291.232 130.509L291.087 133.71L291.208 133.734C291.968 132.279 292.744 131.293 293.536 130.775C294.328 130.242 295.096 129.975 295.84 129.975C296.487 129.975 297.02 130.137 297.441 130.46C297.877 130.783 298.095 131.277 298.095 131.939C298.095 132.635 297.861 133.168 297.392 133.54C296.939 133.912 296.365 134.098 295.67 134.098C294.668 134.098 293.738 133.669 292.881 132.812L293.706 133.007C292.768 133.605 291.944 134.656 291.232 136.159L291.281 139.579C291.313 140.711 291.345 141.786 291.378 142.804C291.426 143.807 291.475 144.494 291.523 144.866L294.894 145.424L294.821 147H285.121ZM308.5 147.291C306.948 147.291 305.549 146.943 304.304 146.248C303.075 145.553 302.097 144.575 301.37 143.314C300.658 142.053 300.302 140.573 300.302 138.876C300.302 137.049 300.69 135.456 301.467 134.098C302.243 132.74 303.253 131.689 304.498 130.945C305.759 130.201 307.109 129.838 308.548 129.854C310.699 129.87 312.348 130.565 313.496 131.939C314.66 133.298 315.242 135.141 315.242 137.469V138.245H303.479V136.426H312.283L311.774 137.081V136.111C311.774 134.688 311.458 133.589 310.828 132.812C310.197 132.036 309.332 131.648 308.233 131.648C307.166 131.648 306.22 132.117 305.395 133.055C304.587 133.977 304.183 135.375 304.183 137.251V137.833C304.183 139.854 304.692 141.446 305.711 142.61C306.745 143.774 308.095 144.357 309.761 144.357C310.666 144.357 311.475 144.187 312.186 143.847C312.897 143.508 313.593 142.926 314.272 142.101L315.314 143.071C314.571 144.494 313.617 145.553 312.453 146.248C311.289 146.943 309.971 147.291 308.5 147.291Z" fill="#3F3F4C"/>
<g filter="url(#filter0_d_275_1748)">
<rect x="216" y="169" width="189" height="113" rx="23.3739" fill="#131522" shape-rendering="crispEdges"/>
<path d="M274.678 221.096L266.278 241.122H263.752L252.856 215.435L250.391 214.674L250.513 212.33H262.383L262.504 214.674L260.07 215.435L267.861 234.791H265.67L272.7 216.835L274.678 221.096ZM281.8 241.122L270.843 215.435L268.378 214.674L268.53 212.33H280.735L280.887 214.674L277.813 215.435L285.635 234.791H283.809L291.052 215.435L287.674 214.674L287.826 212.33H297.657L297.809 214.674L295.252 215.435L284.326 241.122H281.8ZM310.926 241.365C308.674 241.365 306.696 240.909 304.991 239.996C303.287 239.062 301.958 237.784 301.004 236.161C300.051 234.517 299.574 232.63 299.574 230.5C299.574 228.146 300.112 226.128 301.187 224.443C302.262 222.759 303.683 221.471 305.448 220.578C307.213 219.685 309.1 219.239 311.109 219.239C313.259 219.239 315.146 219.706 316.77 220.639C318.393 221.552 319.661 222.82 320.574 224.443C321.487 226.067 321.943 227.943 321.943 230.074C321.943 232.204 321.446 234.122 320.452 235.826C319.478 237.53 318.159 238.88 316.496 239.874C314.832 240.868 312.975 241.365 310.926 241.365ZM311.413 238.413C312.712 238.413 313.726 237.804 314.457 236.587C315.187 235.349 315.552 233.655 315.552 231.504C315.552 228.704 315.075 226.432 314.122 224.687C313.168 222.942 311.92 222.07 310.378 222.07C309.059 222.07 308.004 222.709 307.213 223.987C306.442 225.265 306.057 227.01 306.057 229.222C306.057 231.859 306.564 234.051 307.578 235.796C308.593 237.541 309.871 238.413 311.413 238.413ZM324.774 241L324.622 238.87L327.665 238.017C327.686 237.814 327.716 237.257 327.757 236.343C327.817 235.41 327.868 234.325 327.909 233.087L327.97 229.374C327.97 228.4 327.929 227.507 327.848 226.696C327.767 225.884 327.665 225.072 327.543 224.261L324.409 223.561V221.461L332.535 219.33L333.722 220.122L333.509 224.078L333.661 224.109C334.574 222.283 335.517 221.045 336.491 220.396C337.486 219.726 338.48 219.391 339.474 219.391C340.326 219.391 341.067 219.635 341.696 220.122C342.345 220.588 342.67 221.309 342.67 222.283C342.67 223.297 342.325 224.088 341.635 224.657C340.965 225.204 340.164 225.478 339.23 225.478C338.48 225.478 337.8 225.346 337.191 225.083C336.583 224.819 335.933 224.332 335.244 223.622L336.583 223.804C335.507 224.514 334.584 225.661 333.813 227.243L333.874 231.2C333.894 232.904 333.925 234.385 333.965 235.643C334.006 236.881 334.057 237.672 334.117 238.017L338.348 238.778L338.226 241H324.774ZM362.026 241.578L360.778 240.909L360.839 237.713L360.687 237.622C359.835 239.042 358.902 240.036 357.887 240.604C356.873 241.152 355.838 241.426 354.783 241.426C353.038 241.426 351.425 241 349.944 240.148C348.483 239.275 347.316 238.058 346.444 236.496C345.571 234.933 345.135 233.117 345.135 231.048C345.135 228.633 345.703 226.554 346.839 224.809C347.975 223.043 349.436 221.684 351.222 220.73C353.007 219.777 354.874 219.3 356.822 219.3C357.491 219.3 358.181 219.371 358.891 219.513C359.602 219.635 360.19 219.828 360.657 220.091C360.657 219.259 360.636 218.296 360.596 217.2C360.575 216.084 360.555 215.039 360.535 214.065C360.515 213.071 360.484 212.351 360.444 211.904L356.791 211.326L356.67 209.317L365.617 206.974L366.865 207.796C366.764 209.825 366.673 211.712 366.591 213.456C366.531 215.181 366.5 216.997 366.5 218.904L366.439 230.257C366.439 231.859 366.48 233.168 366.561 234.183C366.642 235.197 366.713 236.059 366.774 236.77L370 237.5V239.478L362.026 241.578ZM356.944 236.983C357.512 236.983 358.141 236.82 358.831 236.496C359.52 236.151 360.139 235.583 360.687 234.791V223.957C360.22 223.287 359.652 222.81 358.983 222.526C358.313 222.222 357.644 222.07 356.974 222.07C355.33 222.07 354.002 222.739 352.987 224.078C351.973 225.397 351.465 227.172 351.465 229.404C351.465 231.859 352.003 233.736 353.078 235.035C354.154 236.333 355.442 236.983 356.944 236.983Z" fill="#E6E7EE"/>
</g>
<path d="M341 272L355.998 308L361.323 292.323L377 286.998L341 272Z" stroke="#E6E7EE" stroke-width="5" stroke-linecap="round" stroke-linejoin="round"/>
<defs>
<filter id="filter0_d_275_1748" x="212.313" y="166.465" width="226.327" height="150.327" filterUnits="userSpaceOnUse" color-interpolation-filters="sRGB">
<feFlood flood-opacity="0" result="BackgroundImageFix"/>
<feColorMatrix in="SourceAlpha" type="matrix" values="0 0 0 0 0 0 0 0 0 0 0 0 0 0 0 0 0 0 127 0" result="hardAlpha"/>
<feOffset dx="14.9769" dy="16.129"/>
<feGaussianBlur stdDeviation="9.33176"/>
<feComposite in2="hardAlpha" operator="out"/>
<feColorMatrix type="matrix" values="0 0 0 0 0 0 0 0 0 0 0 0 0 0 0 0 0 0 0.46 0"/>
<feBlend mode="normal" in2="BackgroundImageFix" result="effect1_dropShadow_275_1748"/>
<feBlend mode="normal" in="SourceGraphic" in2="effect1_dropShadow_275_1748" result="shape"/>
</filter>
</defs>
</svg>
