<svg width="272" height="88" viewBox="0 0 272 88" fill="none" xmlns="http://www.w3.org/2000/svg">
<path d="M139.667 44H150.667L136 58.6667L121.333 44H132.333V29.3334H139.667V44ZM147 14.6667H110.333V73.3334H161.667V29.3334H147V14.6667ZM103 10.97C103 8.96156 104.641 7.33337 106.661 7.33337H150.667L168.999 25.6667L169 76.9725C169 79.0127 167.369 80.6667 165.358 80.6667H106.642C104.631 80.6667 103 78.9973 103 77.0301V10.97Z" fill="#E6E7EE"/>
<path d="M209.666 22V11C209.666 8.97501 211.308 7.33337 213.333 7.33337H257.333C259.358 7.33337 260.999 8.97501 260.999 11V62.3334C260.999 64.3585 259.358 66 257.333 66H246.333V76.9967C246.333 79.0237 244.683 80.6667 242.641 80.6667H198.691C196.652 80.6667 195 79.0365 195 76.9967L195.01 25.6699C195.01 23.6431 196.66 22 198.701 22H209.666ZM202.342 29.3334L202.334 73.3334H238.999V29.3334H202.342ZM216.999 22H246.333V58.6667H253.666V14.6667H216.999V22Z" fill="#E6E7EE"/>
<path d="M77 14.6667L77 73.3333C77 75.3584 75.3584 77 73.3333 77L14.6667 77C12.6416 77 11 75.3584 11 73.3333L11 14.6667C11 12.6416 12.6416 11 14.6667 11L73.3333 11C75.3584 11 77 12.6416 77 14.6667ZM69.6667 18.3333L18.3333 18.3333L18.3333 69.6667L69.6667 69.6667L69.6667 18.3333ZM47.6667 40.3333L62.3333 40.3333L62.3333 47.6667L47.6667 47.6667L47.6667 62.3333L40.3333 62.3333L40.3333 47.6667L25.6667 47.6667L25.6667 40.3333L40.3333 40.3333L40.3333 25.6667L47.6667 25.6667L47.6667 40.3333Z" fill="url(#paint0_linear_276_1797)"/>
<defs>
<linearGradient id="paint0_linear_276_1797" x1="77" y1="44" x2="11" y2="44" gradientUnits="userSpaceOnUse">
<stop stop-color="#575664"/>
<stop offset="1" stop-color="#0E0F19" stop-opacity="0"/>
</linearGradient>
</defs>
</svg>
