<svg width="314" height="210" viewBox="0 0 314 210" fill="none" xmlns="http://www.w3.org/2000/svg">
<path d="M82.375 54.1562C77.5625 54.1562 73.3125 53.3125 69.625 51.625C65.9375 49.9062 63.0312 47.4219 60.9062 44.1719C58.8125 40.9219 57.7656 36.9688 57.7656 32.3125C57.7656 27.5 58.875 23.3281 61.0938 19.7969C63.3125 16.2656 66.3906 13.5312 70.3281 11.5938C74.2656 9.65625 78.8281 8.6875 84.0156 8.6875C86.2344 8.6875 88.5 8.92188 90.8125 9.39062C93.125 9.82812 95.0625 10.4219 96.625 11.1719L96.9531 21.6719L92.5469 21.9062L90.2031 15.0156C89.2031 14.4531 88.0625 14.0625 86.7812 13.8438C85.5312 13.5938 84.375 13.4688 83.3125 13.4688C78.6562 13.4688 75.1094 15.0156 72.6719 18.1094C70.2656 21.2031 69.0625 25.2812 69.0625 30.3438C69.0625 34.3125 69.7188 37.7031 71.0312 40.5156C72.375 43.3281 74.1719 45.4844 76.4219 46.9844C78.7031 48.4844 81.25 49.2344 84.0625 49.2344C84.9062 49.2344 85.875 49.125 86.9688 48.9062C88.0938 48.6875 89.1094 48.2969 90.0156 47.7344L88.3281 51.8594V43.8906C88.3281 42.7344 88.2812 41.5625 88.1875 40.375C88.125 39.1562 88.0625 38.2031 88 37.5156L82.7031 36.4375L82.9375 32.6875H101.078L101.312 36.2969L97.6094 37.4688C97.5781 37.9375 97.5625 38.7031 97.5625 39.7656C97.5938 40.7969 97.6094 41.875 97.6094 43C97.6094 44.0625 97.625 45.1719 97.6562 46.3281C97.7188 47.4531 97.7812 48.7188 97.8438 50.125C95.6875 51.4688 93.2344 52.4844 90.4844 53.1719C87.7344 53.8281 85.0312 54.1562 82.375 54.1562ZM104.031 53.5L103.891 49.8906L107.641 48.7656L123.016 11.3594L128.969 7.98438L146.078 48.7656L149.969 49.8906L149.734 53.5H130.422L130.188 49.8906L134.969 48.7656L130.844 38.7812L130.047 36.25L122.406 17.9688L124.516 18.3906L118 36.0625L117.25 38.3125L113.641 48.7656L118.422 49.8906L118.234 53.5H104.031ZM115.469 40.5625V35.6406C116.469 35.6719 117.641 35.7344 118.984 35.8281C120.328 35.8906 122.062 35.9219 124.188 35.9219C126.25 35.9219 127.984 35.8906 129.391 35.8281C130.797 35.7344 131.984 35.6719 132.953 35.6406V40.4688C131.859 40.4688 130.609 40.4531 129.203 40.4219C127.797 40.3594 126.125 40.3281 124.188 40.3281C122.219 40.3281 120.547 40.3594 119.172 40.4219C117.828 40.4531 116.594 40.5 115.469 40.5625ZM153.25 9.34375H168.578L184.328 43.1406H182.312L196.703 9.34375H211.891L212.125 12.9531L207.391 14.0781C207.359 14.7969 207.359 15.9844 207.391 17.6406C207.422 19.2969 207.453 21.2969 207.484 23.6406L207.906 36.9062C208.031 40.1875 208.156 42.875 208.281 44.9688C208.406 47.0625 208.5 48.3281 208.562 48.7656L213.391 49.8906L213.203 53.5H193.516L193.281 49.8906L198.062 48.7656C198.125 48.2969 198.156 47.1094 198.156 45.2031C198.188 43.2656 198.188 40.5938 198.156 37.1875L197.922 11.5469H201.109L183.109 53.6875H178.75L158.922 11.5H163.141L163.234 37.3281C163.234 41.2656 163.25 44.0781 163.281 45.7656C163.312 47.4219 163.359 48.4219 163.422 48.7656L168.625 49.8906L168.438 53.5H152.219L152.031 49.8906L157.234 48.7656C157.297 48.2969 157.344 47.0312 157.375 44.9688C157.438 42.875 157.484 40.5469 157.516 37.9844L157.75 23.7344C157.812 21.2656 157.828 19.2188 157.797 17.5938C157.766 15.9688 157.75 14.8125 157.75 14.125L153.062 12.9531L153.25 9.34375ZM254.828 53.9219C253.359 53.7969 251.703 53.6875 249.859 53.5938C248.047 53.5312 246.406 53.5 244.938 53.5H219.062L218.828 49.8906L223.609 48.7656C223.734 48.4219 223.844 47.1875 223.938 45.0625C224.031 42.9375 224.078 40.3281 224.078 37.2344V25.7031C224.078 22.5156 224.031 19.8594 223.938 17.7344C223.844 15.6094 223.734 14.4062 223.609 14.125L218.828 12.9531L219.062 9.34375H242.406C243.844 9.34375 245.625 9.32812 247.75 9.29688C249.875 9.23438 251.672 9.125 253.141 8.96875L255.062 19.9375L250.891 20.5L248.125 13.9375C247.5 13.8125 246.922 13.7344 246.391 13.7031C245.859 13.6406 245.312 13.6094 244.75 13.6094H238.609C237.609 13.6094 236.688 13.625 235.844 13.6562C235 13.6875 234.297 13.75 233.734 13.8438C233.609 15.0312 233.547 18.0781 233.547 22.9844V39.5312C233.547 44.2812 233.609 47.3125 233.734 48.625C235.234 48.8125 237.328 48.9062 240.016 48.9062H244.609C246.484 48.9062 247.703 48.8906 248.266 48.8594C248.828 48.8281 249.391 48.75 249.953 48.625L254.031 41.1719L258.156 41.9688L254.828 53.9219ZM245.453 38.4062L244.703 33.3438C244.359 33.3125 243.812 33.2812 243.062 33.25C242.312 33.1875 241.469 33.1562 240.531 33.1562H236.266C235.422 33.1562 234.609 33.1875 233.828 33.25C233.078 33.3125 232.469 33.3594 232 33.3906V28.2812C232.469 28.3125 233.078 28.3594 233.828 28.4219C234.609 28.4531 235.422 28.4688 236.266 28.4688H240.531C241.469 28.4688 242.312 28.4688 243.062 28.4688C243.812 28.4375 244.359 28.4062 244.703 28.375L245.453 23.3125H249.484V38.4062H245.453Z" fill="url(#paint0_linear_274_1731)"/>
<path d="M29.3125 134.375C26.4375 134.375 23.3333 134 20 133.25C16.6667 132.458 13.8333 131.417 11.5 130.125L11 115.562L17.125 115.188L20.375 125.312C23.2917 127.229 26.7083 128.188 30.625 128.188C33.7083 128.188 36.0625 127.521 37.6875 126.188C39.3542 124.854 40.1875 123.042 40.1875 120.75C40.1875 118.458 39.4792 116.604 38.0625 115.188C36.6875 113.729 34.8958 112.5 32.6875 111.5C30.4792 110.458 28.1458 109.438 25.6875 108.438C23.2292 107.438 20.8958 106.25 18.6875 104.875C16.4792 103.5 14.6875 101.75 13.3125 99.625C11.9375 97.4583 11.25 94.7083 11.25 91.375C11.25 86.0417 13.4375 81.7292 17.8125 78.4375C22.2292 75.1458 28.0417 73.5 35.25 73.5C37.5833 73.5 40.0833 73.75 42.75 74.25C45.4583 74.75 47.75 75.3958 49.625 76.1875L50.75 90.5L44.6875 90.875L41.5625 81.25C39.3542 80.1667 36.8958 79.625 34.1875 79.625C31.3542 79.625 29.0208 80.3333 27.1875 81.75C25.3542 83.1667 24.4375 85.1458 24.4375 87.6875C24.4375 89.9375 25.1458 91.7917 26.5625 93.25C27.9792 94.7083 29.7917 95.9792 32 97.0625C34.25 98.1042 36.625 99.1458 39.125 100.188C41.625 101.188 44 102.375 46.25 103.75C48.5 105.125 50.3333 106.854 51.75 108.938C53.1667 111.021 53.875 113.625 53.875 116.75C53.875 120.167 52.8333 123.208 50.75 125.875C48.7083 128.5 45.8333 130.583 42.125 132.125C38.4583 133.625 34.1875 134.375 29.3125 134.375ZM113.375 74.125L115.688 91.625L109.812 92.125L105.75 80.625C104.292 80.4167 102.833 80.3125 101.375 80.3125H97.9375C97.3125 80.3125 96.5833 80.3333 95.75 80.375C94.9583 80.375 94.2917 80.4167 93.75 80.5C93.7083 80.9583 93.6667 82.2083 93.625 84.25C93.625 86.2917 93.6042 88.7292 93.5625 91.5625C93.5625 94.3958 93.5625 97.25 93.5625 100.125V110.125C93.5625 114 93.6042 117.458 93.6875 120.5C93.7708 123.5 93.8333 125.729 93.875 127.188L102.562 128.5L102.25 133.5H72.0625L71.75 128.5L80.4375 127.188C80.4375 125.729 80.4792 123.5 80.5625 120.5C80.6458 117.458 80.6875 114 80.6875 110.125V100.125C80.6875 97.25 80.6667 94.3958 80.625 91.5625C80.625 88.7292 80.6042 86.2917 80.5625 84.25C80.5625 82.2083 80.5417 80.9583 80.5 80.5C80 80.4167 79.3333 80.375 78.5 80.375C77.7083 80.3333 77 80.3125 76.375 80.3125H72.875C71.2083 80.3125 69.6667 80.4167 68.25 80.625L64.4375 92.375L58.5 91.75L60.625 74.125C61.5833 74.1667 62.875 74.2292 64.5 74.3125C66.1667 74.3958 67.8542 74.4792 69.5625 74.5625C71.3125 74.6042 72.7708 74.625 73.9375 74.625H100.062C101.229 74.625 102.667 74.6042 104.375 74.5625C106.083 74.4792 107.75 74.3958 109.375 74.3125C111.042 74.2292 112.375 74.1667 113.375 74.125ZM153.438 134.375C147.312 134.375 141.875 133.125 137.125 130.625C132.417 128.083 128.708 124.583 126 120.125C123.333 115.667 122 110.542 122 104.75C122 98.7917 123.354 93.4792 126.062 88.8125C128.771 84.1458 132.5 80.4792 137.25 77.8125C142 75.1042 147.417 73.75 153.5 73.75C159.417 73.75 164.625 75 169.125 77.5C173.667 80 177.208 83.4792 179.75 87.9375C182.333 92.3958 183.625 97.5208 183.625 103.312C183.625 108.396 182.708 112.875 180.875 116.75C179.083 120.583 176.688 123.812 173.688 126.438C170.729 129.062 167.458 131.042 163.875 132.375C160.333 133.708 156.854 134.375 153.438 134.375ZM154.188 127.312C158.938 127.312 162.562 125.438 165.062 121.688C167.562 117.938 168.812 112.667 168.812 105.875C168.812 98.0833 167.312 91.8333 164.312 87.125C161.312 82.4167 157.312 80.0625 152.312 80.0625C147.562 80.0625 143.812 82.0208 141.062 85.9375C138.354 89.8125 137 95.1667 137 102C137 106.958 137.729 111.354 139.188 115.188C140.646 118.979 142.667 121.958 145.25 124.125C147.833 126.25 150.812 127.312 154.188 127.312ZM192.688 133.5L192.375 128.688L198.75 127.125C198.792 126.542 198.812 125.375 198.812 123.625C198.854 121.875 198.896 119.917 198.938 117.75C198.979 115.583 199 113.604 199 111.812V96.4375C199 92.2292 198.938 88.7083 198.812 85.875C198.688 83 198.542 81.375 198.375 81L192 79.4375L192.312 74.625H217.562C232.271 74.625 239.625 79.6667 239.625 89.75C239.625 93.0417 238.625 95.9792 236.625 98.5625C234.667 101.146 231.958 103.167 228.5 104.625C225.042 106.083 221.062 106.812 216.562 106.812H210V101.25H214.812C218.271 101.25 221.042 100.229 223.125 98.1875C225.208 96.1042 226.25 93.3333 226.25 89.875C226.25 83.3333 222.833 80.0625 216 80.0625H211.812C211.729 80.4792 211.667 82.1042 211.625 84.9375C211.625 87.7292 211.625 91.2708 211.625 95.5625V111.812C211.625 114.812 211.667 117.792 211.75 120.75C211.833 123.708 211.917 125.833 212 127.125L217.688 128.688L217.375 133.5H192.688ZM244.188 134.625C238.771 134.625 234.208 133.292 230.5 130.625C226.833 127.958 223.542 123.583 220.625 117.5L214.812 105.188L225.25 102.75L237 119.188C239.208 122.312 241.333 124.688 243.375 126.312C245.417 127.938 247.708 129.062 250.25 129.688L250.188 134.062C248.312 134.438 246.312 134.625 244.188 134.625ZM302.312 81L281.188 114.562L285.25 105.062V115C285.25 117.875 285.292 120.521 285.375 122.938C285.5 125.354 285.646 126.771 285.812 127.188L292.812 128.562L292.562 133.5H265.5L265.188 128.562L272.188 127.188C272.312 126.771 272.417 125.354 272.5 122.938C272.625 120.521 272.688 117.875 272.688 115V105.062L275.75 114.562L255.688 81L250.625 79.4375L250.875 74.625H276.375L276.688 79.4375L270.375 81L283.562 103.25H281.312L294.312 81L287.25 79.4375L287.562 74.625H307.125L307.438 79.4375L302.312 81Z" fill="#F9F5F5"/>
<path d="M77.9688 200.156C75.8125 200.156 73.4844 199.875 70.9844 199.312C68.4844 198.719 66.3594 197.938 64.6094 196.969L64.2344 186.047L68.8281 185.766L71.2656 193.359C73.4531 194.797 76.0156 195.516 78.9531 195.516C81.2656 195.516 83.0312 195.016 84.25 194.016C85.5 193.016 86.125 191.656 86.125 189.938C86.125 188.219 85.5938 186.828 84.5312 185.766C83.5 184.672 82.1562 183.75 80.5 183C78.8438 182.219 77.0938 181.453 75.25 180.703C73.4062 179.953 71.6562 179.062 70 178.031C68.3438 177 67 175.688 65.9688 174.094C64.9375 172.469 64.4219 170.406 64.4219 167.906C64.4219 163.906 66.0625 160.672 69.3438 158.203C72.6562 155.734 77.0156 154.5 82.4219 154.5C84.1719 154.5 86.0469 154.688 88.0469 155.062C90.0781 155.438 91.7969 155.922 93.2031 156.516L94.0469 167.25L89.5 167.531L87.1562 160.312C85.5 159.5 83.6562 159.094 81.625 159.094C79.5 159.094 77.75 159.625 76.375 160.688C75 161.75 74.3125 163.234 74.3125 165.141C74.3125 166.828 74.8438 168.219 75.9062 169.312C76.9688 170.406 78.3281 171.359 79.9844 172.172C81.6719 172.953 83.4531 173.734 85.3281 174.516C87.2031 175.266 88.9844 176.156 90.6719 177.188C92.3594 178.219 93.7344 179.516 94.7969 181.078C95.8594 182.641 96.3906 184.594 96.3906 186.938C96.3906 189.5 95.6094 191.781 94.0469 193.781C92.5156 195.75 90.3594 197.312 87.5781 198.469C84.8281 199.594 81.625 200.156 77.9688 200.156ZM125.594 200.156C121 200.156 116.922 199.219 113.359 197.344C109.828 195.438 107.047 192.812 105.016 189.469C103.016 186.125 102.016 182.281 102.016 177.938C102.016 173.469 103.031 169.484 105.062 165.984C107.094 162.484 109.891 159.734 113.453 157.734C117.016 155.703 121.078 154.688 125.641 154.688C130.078 154.688 133.984 155.625 137.359 157.5C140.766 159.375 143.422 161.984 145.328 165.328C147.266 168.672 148.234 172.516 148.234 176.859C148.234 180.672 147.547 184.031 146.172 186.938C144.828 189.812 143.031 192.234 140.781 194.203C138.562 196.172 136.109 197.656 133.422 198.656C130.766 199.656 128.156 200.156 125.594 200.156ZM126.156 194.859C129.719 194.859 132.438 193.453 134.312 190.641C136.188 187.828 137.125 183.875 137.125 178.781C137.125 172.938 136 168.25 133.75 164.719C131.5 161.188 128.5 159.422 124.75 159.422C121.188 159.422 118.375 160.891 116.312 163.828C114.281 166.734 113.266 170.75 113.266 175.875C113.266 179.594 113.812 182.891 114.906 185.766C116 188.609 117.516 190.844 119.453 192.469C121.391 194.062 123.625 194.859 126.156 194.859ZM190.562 186.188V173.719C190.562 169.969 190.516 166.844 190.422 164.344C190.359 161.844 190.25 160.438 190.094 160.125L184.938 158.953L185.125 155.344H200.875L201.062 158.953L196.328 160.125C196.203 160.438 196.094 161.844 196 164.344C195.906 166.812 195.859 169.938 195.859 173.719V188.625C195.859 190.844 195.859 192.844 195.859 194.625C195.859 196.375 195.859 198.109 195.859 199.828H191.5L161.641 164.531L165.297 164.484V180.375C165.297 184.531 165.328 187.859 165.391 190.359C165.484 192.859 165.609 194.328 165.766 194.766L171.016 195.891L170.781 199.5H154.797L154.609 195.891L159.344 194.766C159.469 194.328 159.578 192.812 159.672 190.219C159.766 187.594 159.812 184.312 159.812 180.375V169.875C159.812 167.688 159.75 165.641 159.625 163.734C159.531 161.797 159.438 160.594 159.344 160.125L154.609 158.953L154.797 155.344H166.469L193.328 186.188H190.562ZM232 200.156C227.188 200.156 222.938 199.312 219.25 197.625C215.562 195.906 212.656 193.422 210.531 190.172C208.438 186.922 207.391 182.969 207.391 178.312C207.391 173.5 208.5 169.328 210.719 165.797C212.938 162.266 216.016 159.531 219.953 157.594C223.891 155.656 228.453 154.688 233.641 154.688C235.859 154.688 238.125 154.922 240.438 155.391C242.75 155.828 244.688 156.422 246.25 157.172L246.578 167.672L242.172 167.906L239.828 161.016C238.828 160.453 237.688 160.062 236.406 159.844C235.156 159.594 234 159.469 232.938 159.469C228.281 159.469 224.734 161.016 222.297 164.109C219.891 167.203 218.688 171.281 218.688 176.344C218.688 180.312 219.344 183.703 220.656 186.516C222 189.328 223.797 191.484 226.047 192.984C228.328 194.484 230.875 195.234 233.688 195.234C234.531 195.234 235.5 195.125 236.594 194.906C237.719 194.688 238.734 194.297 239.641 193.734L237.953 197.859V189.891C237.953 188.734 237.906 187.562 237.812 186.375C237.75 185.156 237.688 184.203 237.625 183.516L232.328 182.438L232.562 178.688H250.703L250.938 182.297L247.234 183.469C247.203 183.938 247.188 184.703 247.188 185.766C247.219 186.797 247.234 187.875 247.234 189C247.234 190.062 247.25 191.172 247.281 192.328C247.344 193.453 247.406 194.719 247.469 196.125C245.312 197.469 242.859 198.484 240.109 199.172C237.359 199.828 234.656 200.156 232 200.156Z" fill="url(#paint1_linear_274_1731)"/>
<defs>
<linearGradient id="paint0_linear_274_1731" x1="157" y1="-37.5" x2="157" y2="101.5" gradientUnits="userSpaceOnUse">
<stop stop-color="#3F3F4C"/>
<stop offset="1"/>
</linearGradient>
<linearGradient id="paint1_linear_274_1731" x1="157" y1="247.5" x2="157" y2="108.5" gradientUnits="userSpaceOnUse">
<stop stop-color="#3F3F4C"/>
<stop offset="1"/>
</linearGradient>
</defs>
</svg>
