<svg width="1211" height="162" viewBox="0 0 1211 162" fill="none" xmlns="http://www.w3.org/2000/svg">
<path d="M271.643 151.053L270.959 140.517L284.778 137.234C285.143 136.23 285.462 132.627 285.736 126.425C286.01 120.131 286.146 112.515 286.146 103.576V69.9176C286.146 60.7049 286.01 52.9517 285.736 46.6579C285.462 40.3641 285.143 36.8068 284.778 35.9858L270.959 32.7021L271.643 22.1669H328.698L329.245 32.7021L315.426 35.9858C314.97 36.9892 314.605 40.5921 314.332 46.7947C314.149 52.9973 314.058 60.7049 314.058 69.9176V103.576C314.058 112.423 314.149 119.994 314.332 126.288C314.605 132.491 314.97 136.139 315.426 137.234L329.245 140.517L328.698 151.053H271.643Z" fill="#FAFAFB"/>
<path d="M589.329 0L529.663 97.7151L490.699 58.1407L589.329 0Z" fill="#FAFAFB"/>
<path d="M501.797 162L561.464 64.2849L600.428 103.859L501.797 162Z" fill="#FAFAFB"/>
<path d="M725.077 21.0723L730.139 59.3823L717.278 60.4769L708.385 35.3017C705.192 34.8456 702 34.6176 698.807 34.6176H691.282C689.914 34.6176 688.317 34.6632 686.493 34.7544C684.76 34.7544 683.301 34.8456 682.115 35.0281C682.024 36.0314 681.932 38.7679 681.841 43.2374C681.841 47.7069 681.796 53.0429 681.704 59.2455C681.704 65.4481 681.704 71.6962 681.704 77.99V99.8815C681.704 108.364 681.796 115.935 681.978 122.594C682.16 129.161 682.297 134.041 682.389 137.234L701.407 140.107L700.723 151.053H634.638L633.954 140.107L652.972 137.234C652.972 134.041 653.063 129.161 653.246 122.594C653.428 115.935 653.519 108.364 653.519 99.8815V77.99C653.519 71.6962 653.474 65.4481 653.382 59.2455C653.382 53.0429 653.337 47.7069 653.246 43.2374C653.246 38.7679 653.2 36.0314 653.109 35.0281C652.014 34.8456 650.555 34.7544 648.73 34.7544C646.997 34.6632 645.447 34.6176 644.078 34.6176H636.416C632.768 34.6176 629.393 34.8456 626.292 35.3017L617.946 61.0242L604.948 59.6559L609.599 21.0723C611.697 21.1635 614.525 21.3003 618.082 21.4827C621.731 21.6652 625.425 21.8476 629.165 22.03C632.996 22.1212 636.188 22.1669 638.742 22.1669H695.934C698.488 22.1669 701.635 22.1212 705.375 22.03C709.114 21.8476 712.763 21.6652 716.32 21.4827C719.969 21.3003 722.888 21.1635 725.077 21.0723Z" fill="#FAFAFB"/>
<path d="M812.779 152.968C799.371 152.968 787.467 150.232 777.069 144.759C766.762 139.195 758.644 131.533 752.715 121.773C746.877 112.013 743.958 100.794 743.958 88.1148C743.958 75.0712 746.923 63.4413 752.852 53.2253C758.781 43.0093 766.944 34.9825 777.343 29.1447C787.741 23.2158 799.599 20.2514 812.916 20.2514C825.869 20.2514 837.27 22.9878 847.122 28.4606C857.064 33.9335 864.817 41.5499 870.381 51.3098C876.037 61.0698 878.864 72.2891 878.864 84.9679C878.864 96.0961 876.857 105.902 872.844 114.385C868.922 122.776 863.677 129.845 857.11 135.592C850.633 141.338 843.473 145.671 835.629 148.59C827.875 151.509 820.259 152.968 812.779 152.968ZM814.421 137.507C824.82 137.507 832.755 133.403 838.228 125.193C843.701 116.984 846.438 105.446 846.438 90.5776C846.438 73.5205 843.154 59.8384 836.586 49.5312C830.019 39.2239 821.262 34.0703 810.317 34.0703C799.918 34.0703 791.709 38.3574 785.689 46.9315C779.76 55.4145 776.795 67.1355 776.795 82.0947C776.795 92.9492 778.392 102.572 781.584 110.964C784.777 119.264 789.201 125.786 794.856 130.529C800.511 135.181 807.033 137.507 814.421 137.507Z" fill="#FAFAFB"/>
<path d="M451.016 102.925L380.69 22.1669H346.622L346.074 32.7021L359.893 36.1226C360.167 37.4909 360.44 41.0026 360.714 46.6579C361.079 52.222 361.261 58.1965 361.261 64.5815V95.2295C361.261 106.723 361.125 116.3 360.851 123.962C360.577 131.533 360.258 135.957 359.893 137.234L346.074 140.517L346.622 151.053H393.278L393.962 140.517L378.638 137.234C378.182 135.957 377.817 131.67 377.543 124.372C377.361 117.075 377.27 107.361 377.27 95.2295V61.5994L453.753 152.01H466.477V136.823V119.31V75.8009C466.477 64.7639 466.614 55.6425 466.888 48.4366C467.161 41.1394 467.48 37.0348 467.845 36.1226L481.664 32.7021L481.117 22.1669H435.145L434.598 32.7021L449.648 36.1226C450.104 37.0348 450.423 41.1394 450.606 48.4366C450.879 55.7337 451.016 64.8552 451.016 75.8009V102.925Z" fill="#FAFAFB"/>
<path fill-rule="evenodd" clip-rule="evenodd" d="M973.821 89.1C974.938 88.7123 976.031 88.2927 977.102 87.8412C984.673 84.6487 990.602 80.2248 994.889 74.5695C999.267 68.9142 1001.46 62.4836 1001.46 55.2777C1001.46 33.2038 985.357 22.1669 953.158 22.1669H897.882L897.198 32.7021L911.154 36.1226C911.519 36.9436 911.838 40.5009 912.112 46.7947C912.385 52.9973 912.522 60.7049 912.522 69.9176V103.576C912.522 107.498 912.477 111.831 912.385 116.574C912.294 121.317 912.203 125.604 912.112 129.435C912.112 133.266 912.066 135.82 911.975 137.097L898.019 140.517L898.703 151.053H952.748L953.432 140.517L940.981 137.097C940.799 134.269 940.616 129.617 940.434 123.141C940.251 116.665 940.16 110.143 940.16 103.576V92.6299H948.817L959.863 116.026C966.248 129.344 973.453 138.921 981.48 144.759C989.598 150.597 999.594 151.923 1011.45 151.923C1016.1 151.923 1020.48 151.512 1024.59 150.692L1024.72 141.114C1019.16 139.746 1014.14 137.283 1009.67 133.726C1005.2 130.168 1000.54 126.562 995.71 119.721L973.821 89.1ZM940.16 68.0021V80.4528H947.138C954.709 80.4528 960.775 78.2181 965.335 73.7486C969.896 69.1878 972.176 63.1221 972.176 55.5513C972.176 41.2306 964.697 34.0703 949.738 34.0703H940.571C940.388 34.9825 940.251 38.5398 940.16 44.7424V68.0021Z" fill="#FAFAFB"/>
<path d="M1165.56 49.9228L1166.05 103.439C1166.14 113.381 1166.14 121.18 1166.05 126.835C1166.05 132.399 1165.96 135.866 1165.78 137.234L1151.82 140.517L1152.51 151.053H1209.97L1210.52 140.517L1196.43 137.234C1196.24 135.957 1195.97 132.263 1195.61 126.151C1195.24 120.04 1194.88 112.195 1194.51 102.618L1193.28 63.8974C1193.19 57.0563 1193.1 51.2186 1193.01 46.3843C1192.92 41.5499 1192.92 38.0838 1193.01 35.9858L1206.83 32.7021L1206.14 22.1669H1161.81L1122.62 114.218L1079.72 22.1669H1034.98L1034.43 32.7021L1048.11 36.1226C1048.11 38.1294 1048.16 41.5043 1048.25 46.2474C1048.34 50.9906 1048.29 56.9651 1048.11 64.1711L1047.43 105.765C1047.34 113.244 1047.2 120.04 1047.02 126.151C1046.93 132.171 1046.79 135.866 1046.61 137.234L1031.42 140.517L1031.97 151.053H1079.31L1079.85 140.517L1064.67 137.234C1064.49 136.23 1064.35 133.312 1064.26 128.477C1064.17 123.552 1064.12 115.342 1064.12 103.849L1063.94 54.8644L1109.41 151.6H1122.13L1165.56 49.9228Z" fill="#FAFAFB"/>
<path fill-rule="evenodd" clip-rule="evenodd" d="M14.9135 129.435C15.0047 125.604 15.0959 121.317 15.1871 116.574C15.2783 111.831 15.3239 107.498 15.3239 103.576V69.9176C15.3239 60.7049 15.1871 52.9973 14.9135 46.7947C14.6398 40.501 14.3206 36.9436 13.9557 36.1227L-6.68074e-05 32.7021L0.684041 22.1669H55.9599C88.1586 22.1669 104.258 33.2038 104.258 55.2777C104.258 62.4836 102.069 68.9142 97.6905 74.5695C93.4034 80.2248 87.4745 84.6487 79.9037 87.8412C78.8329 88.2927 77.7393 88.7123 76.6229 89.1L98.5114 119.721C103.346 126.562 108.005 130.168 112.474 133.726C116.4 136.85 120.748 139.13 125.518 140.566V151.034C121.961 151.627 118.206 151.923 114.253 151.923C102.395 151.923 92.4 150.597 84.282 144.759C76.2551 138.921 69.0492 129.344 62.6642 116.026L51.6191 92.6299H42.9619V103.576C42.9619 110.143 43.0531 116.665 43.2355 123.141C43.418 129.617 43.6004 134.269 43.7828 137.097L56.2336 140.517L55.5495 151.053H1.50497L0.820862 140.517L14.7767 137.097C14.8679 135.82 14.9135 133.266 14.9135 129.435ZM42.9619 68.0021V80.4528H49.9398C57.5106 80.4528 63.5763 78.2181 68.137 73.7486C72.6978 69.1879 74.9781 63.1221 74.9781 55.5513C74.9781 41.2307 67.4985 34.0703 52.5394 34.0703H43.3723C43.1899 34.9825 43.0531 38.5398 42.9619 44.7424V68.0021Z" fill="#FAFAFB"/>
<path fill-rule="evenodd" clip-rule="evenodd" d="M130.487 142.517L130.409 140.517L140.568 137.234L185.446 28.0502L202.822 18.199L252.762 137.234L264.118 140.517L263.434 151.053H207.063L206.379 140.517L220.335 137.234L210.32 112.994C208.209 112.972 205.938 112.934 203.506 112.88C199.401 112.697 194.521 112.606 188.866 112.606C183.12 112.606 178.24 112.697 174.226 112.88C171.459 112.944 168.85 113.031 166.4 113.141L158.081 137.234L172.037 140.517L171.49 151.053H131.11H130.819L130.487 142.517ZM171.121 99.301L187.179 55.746L205.417 99.3819L204.775 99.4234L204.053 99.471C199.949 99.6534 194.886 99.7447 188.866 99.7447C182.664 99.7447 177.601 99.6534 173.679 99.471C172.801 99.4097 171.948 99.3531 171.121 99.301Z" fill="#FAFAFB"/>
</svg>
