<svg width="344" height="115" viewBox="0 0 344 115" fill="none" xmlns="http://www.w3.org/2000/svg">
<mask id="path-1-outside-1_276_1779" maskUnits="userSpaceOnUse" x="0" y="0" width="337" height="73" fill="black">
<rect fill="white" width="337" height="73"/>
<path d="M0 0H337V70H0V0Z"/>
</mask>
<path d="M337 70V67H0V70V73H337V70Z" fill="url(#paint0_linear_276_1779)" mask="url(#path-1-outside-1_276_1779)"/>
<path d="M15.2378 25.3476C12.6889 25.3476 10.4379 24.9007 8.48486 24.0069C6.53182 23.0966 5.00083 21.7725 3.8919 20.0346C2.78296 18.2968 2.2285 16.1699 2.2285 13.6541C2.2285 11.1549 2.81607 8.97842 3.9912 7.12468C5.16634 5.25439 6.78836 3.81443 8.85726 2.80481C10.9427 1.77863 13.3344 1.26554 16.0322 1.26554C17.2239 1.26554 18.4321 1.38968 19.6569 1.63795C20.8817 1.86966 21.9327 2.18414 22.8099 2.58137L23.083 8.56463L20.7493 8.73842L19.359 4.61717C18.8459 4.35235 18.2584 4.15373 17.5963 4.02132C16.9508 3.87236 16.3136 3.79788 15.6846 3.79788C13.2516 3.79788 11.4062 4.61717 10.1483 6.25574C8.90692 7.89431 8.28625 10.0542 8.28625 12.7355C8.28625 14.8375 8.63382 16.6334 9.32897 18.123C10.0241 19.6126 10.9593 20.7546 12.1344 21.5491C13.3095 22.327 14.6171 22.7159 16.057 22.7159C16.8019 22.7159 17.5218 22.6249 18.217 22.4428C18.9121 22.2442 19.5245 21.9463 20.0542 21.5491L21.5686 17.8499L24.0761 18.1478L22.9341 23.3863C22.0734 23.9324 20.9479 24.3959 19.5576 24.7766C18.1839 25.1572 16.7439 25.3476 15.2378 25.3476ZM32.6165 25.2979C31.4083 25.2979 30.3656 25.0497 29.4884 24.5531C28.6277 24.04 27.9574 23.4194 27.4774 22.6911C27.014 21.9629 26.7822 21.2594 26.7822 20.5808C26.7822 18.7271 28.0153 17.4278 30.4814 16.683L36.6881 14.7962V13.2817C36.6881 12.4211 36.2909 11.6514 35.4965 10.9728C34.702 10.2942 33.8 9.95494 32.7903 9.95494C32.2938 9.95494 31.9545 10.0708 31.7724 10.3025C31.5904 10.5177 31.4745 10.9232 31.4249 11.519L31.2511 13.8279C29.9932 14.0927 28.9587 14.0514 28.1477 13.7038C27.3367 13.3562 26.9312 12.7852 26.9312 11.9907C26.9312 11.4942 27.1795 10.9894 27.676 10.4763C28.1725 9.94666 28.8015 9.4584 29.5628 9.01152C30.3408 8.54808 31.1352 8.15913 31.9462 7.84466C32.7738 7.53018 33.502 7.33157 34.131 7.24881C36.4151 7.24881 38.2274 7.78673 39.5681 8.86256C40.9253 9.92184 41.6121 11.3452 41.6287 13.1328L41.5046 18.8678C41.5046 20.2415 41.6121 21.1436 41.8273 21.5739L44.4093 22.0704V23.6842L41.9266 24.7269C40.9501 25.1076 40.1639 25.2979 39.5681 25.2979C38.575 25.2979 37.8798 24.7931 37.4826 23.7835L36.8371 21.9711L37.6316 22.1201C35.9268 24.2386 34.2551 25.2979 32.6165 25.2979ZM34.4786 21.9711C35.2896 21.9711 36.0426 21.6236 36.7378 20.9284V16.9809L33.7338 17.6016C32.509 17.8168 31.8966 18.4457 31.8966 19.4884C31.8966 20.1174 32.1531 20.6884 32.6662 21.2015C33.1793 21.7146 33.7834 21.9711 34.4786 21.9711ZM59.4792 21.8222C59.0323 22.9311 58.304 23.8 57.2944 24.429C56.2848 25.0414 55.1593 25.3476 53.918 25.3476C52.1139 25.3476 50.6326 24.8262 49.474 23.7835C48.3319 22.7408 47.7609 21.1518 47.7609 19.0167L47.8602 10.0294H45.0796V8.86256L51.6339 3.57444H52.7759L52.6766 9.01152L52.6021 18.5202C52.6021 19.6953 52.8752 20.5394 53.4214 21.0525C53.9676 21.5491 54.7373 21.7973 55.7303 21.7973C56.7565 21.7973 57.6834 21.4249 58.5109 20.6801L59.4792 21.8222ZM50.8394 10.0294V7.59639H58.362V10.0294H50.8394ZM69.5092 25.2979C67.821 25.2979 66.3148 24.9255 64.9907 24.1807C63.6666 23.4194 62.6239 22.3849 61.8626 21.0774C61.1178 19.7533 60.7453 18.2471 60.7453 16.5589C60.7453 14.7051 61.1591 13.0831 61.9867 11.6928C62.8308 10.286 63.9315 9.19358 65.2887 8.41567C66.6459 7.62121 68.0858 7.23226 69.6085 7.24881C71.9092 7.24881 73.6884 7.96052 74.9463 9.38392C76.2207 10.8073 76.858 12.7024 76.858 15.0693V15.9879H65.0156V13.9521H73.1588L72.5381 14.8458V13.5797C72.5381 12.2556 72.2485 11.2294 71.6692 10.5011C71.1064 9.75632 70.3202 9.38392 69.3106 9.38392C68.301 9.38392 67.432 9.82253 66.7038 10.6997C65.9921 11.5604 65.6362 12.868 65.6362 14.6224V15.392C65.6362 17.2954 66.141 18.8264 67.1507 19.985C68.1768 21.127 69.534 21.698 71.2223 21.698C72.116 21.698 72.9353 21.5325 73.6801 21.2015C74.4249 20.8539 75.1449 20.2746 75.8401 19.4636L77.0069 20.6057C76.2621 22.1615 75.2359 23.3366 73.9284 24.1311C72.6209 24.909 71.1478 25.2979 69.5092 25.2979ZM87.7818 34.0618C85.0177 34.0618 82.8578 33.6728 81.302 32.8949C79.7627 32.117 78.9931 31.0577 78.9931 29.7171C78.9931 28.8399 79.44 28.0206 80.3337 27.2592C81.244 26.4979 82.5102 25.8607 84.1322 25.3476L85.7956 25.5462C85.1336 26.0096 84.6039 26.5393 84.2067 27.1351C83.8095 27.7475 83.6109 28.3764 83.6109 29.0219C83.6109 29.9488 83.9998 30.6688 84.7777 31.1819C85.5722 31.695 86.6894 31.9515 88.1294 31.9515C89.619 31.9515 90.852 31.6288 91.8285 30.9833C92.8051 30.3378 93.2933 29.535 93.2933 28.5751C93.2933 27.8634 93.0368 27.3254 92.5237 26.9613C92.0106 26.6137 91.1582 26.3903 89.9665 26.291L85.0012 25.8441L84.6039 25.6455C83.3129 25.6455 82.295 25.3972 81.5502 24.9007C80.822 24.3876 80.4579 23.7256 80.4579 22.9145C80.4579 22.1035 80.8634 21.3339 81.6744 20.6057C82.5019 19.8774 83.6274 19.2898 85.0508 18.8429L85.6467 19.5133C84.935 20.0264 84.5791 20.4898 84.5791 20.9036C84.5791 21.5491 85.0094 21.9132 85.8701 21.996L91.8782 22.5918C93.8312 22.7904 95.2795 23.3035 96.2229 24.1311C97.1663 24.9586 97.638 26.051 97.638 27.4082C97.638 28.6495 97.2077 29.775 96.347 30.7847C95.4864 31.7943 94.3112 32.5887 92.8216 33.168C91.3486 33.7639 89.6686 34.0618 87.7818 34.0618ZM87.9556 20.2581C85.5887 20.2581 83.6853 19.6788 82.2454 18.5202C80.8054 17.3451 80.0855 15.8058 80.0855 13.9024C80.0855 12.6114 80.433 11.4611 81.1282 10.4515C81.8399 9.44185 82.7999 8.64739 84.0081 8.0681C85.2329 7.48881 86.5984 7.19916 88.1045 7.19916C89.5941 7.19916 90.9182 7.49708 92.0768 8.09292C93.2354 8.67222 94.1457 9.4584 94.8078 10.4515C95.4864 11.4445 95.8257 12.57 95.8257 13.8279C95.8257 15.7148 95.0891 17.2623 93.6161 18.4705C92.143 19.6622 90.2562 20.2581 87.9556 20.2581ZM88.2783 18.0733C89.1224 18.0733 89.801 17.7092 90.3141 16.9809C90.8272 16.2361 91.0837 15.2265 91.0837 13.9521C91.0837 12.5783 90.8024 11.4694 90.2396 10.6253C89.6934 9.78115 88.9652 9.35909 88.0549 9.35909C87.2108 9.35909 86.5156 9.7646 85.9694 10.5756C85.4398 11.3701 85.175 12.3962 85.175 13.6541C85.175 14.9782 85.4563 16.0458 86.0191 16.8568C86.5984 17.6678 87.3514 18.0733 88.2783 18.0733ZM98.0601 10.7246L92.7968 10.228L91.5803 8.41567L98.0601 7.64604V10.7246ZM109.406 25.2979C107.569 25.2979 105.955 24.9255 104.565 24.1807C103.174 23.4194 102.09 22.3766 101.312 21.0525C100.534 19.7119 100.146 18.1726 100.146 16.4347C100.146 14.5148 100.584 12.868 101.461 11.4942C102.339 10.1204 103.497 9.06945 104.937 8.34119C106.377 7.61294 107.916 7.24881 109.555 7.24881C111.309 7.24881 112.849 7.62949 114.173 8.39085C115.497 9.13565 116.531 10.1701 117.276 11.4942C118.021 12.8183 118.393 14.3493 118.393 16.0872C118.393 17.825 117.988 19.3891 117.177 20.7794C116.382 22.1697 115.306 23.2704 113.949 24.0814C112.592 24.8924 111.078 25.2979 109.406 25.2979ZM109.803 22.8897C110.862 22.8897 111.69 22.3932 112.286 21.4001C112.882 20.3905 113.18 19.0085 113.18 17.254C113.18 14.97 112.791 13.1162 112.013 11.6928C111.235 10.2694 110.217 9.55771 108.959 9.55771C107.883 9.55771 107.023 10.0791 106.377 11.1218C105.748 12.1645 105.434 13.5879 105.434 15.392C105.434 17.5437 105.847 19.3312 106.675 20.7546C107.503 22.178 108.545 22.8897 109.803 22.8897ZM120.702 25L120.578 23.2621L123.061 22.567C123.077 22.4015 123.102 21.9463 123.135 21.2015C123.185 20.4401 123.226 19.5546 123.259 18.545L123.309 15.5161C123.309 14.7217 123.276 13.9934 123.21 13.3314C123.143 12.6693 123.061 12.0073 122.961 11.3452L120.404 10.7742V9.06117L127.033 7.32329L128.001 7.96879L127.827 11.1963L127.952 11.2211C128.696 9.7315 129.466 8.72187 130.26 8.19223C131.072 7.64604 131.883 7.37295 132.694 7.37295C133.389 7.37295 133.993 7.57156 134.506 7.96879C135.036 8.34947 135.3 8.93704 135.3 9.7315C135.3 10.5591 135.019 11.2046 134.456 11.668C133.91 12.1149 133.256 12.3383 132.495 12.3383C131.883 12.3383 131.328 12.2307 130.832 12.0156C130.335 11.8004 129.805 11.4032 129.243 10.8239L130.335 10.9728C129.458 11.5521 128.705 12.4873 128.076 13.7783L128.125 17.0058C128.142 18.3961 128.167 19.6043 128.2 20.6305C128.233 21.6401 128.274 22.2856 128.324 22.567L131.775 23.1876L131.676 25H120.702ZM144.834 25.149L137.56 9.97976L135.722 9.30944L135.847 7.54673H145.554L145.678 9.30944L143.195 9.97976L147.838 20.1339L144.834 25.149ZM155.807 7.54673L155.931 9.30944L154.069 9.97976L147.143 23.8083L143.99 30.3874C143.278 31.8274 142.558 32.7956 141.83 33.2922C141.102 33.8053 140.315 34.0618 139.471 34.0618C138.627 34.0618 137.949 33.8549 137.435 33.4411C136.939 33.0439 136.691 32.5391 136.691 31.9267C136.691 30.6688 137.584 29.7916 139.372 29.295L143.89 28.0289L141.383 29.8909L146.125 21.0277L146.646 20.1091L151.065 9.97976L148.583 9.30944L148.707 7.54673H155.807Z" fill="#E6E7EE"/>
<path d="M13.5192 47.1755L8.95107 58.0662H7.57732L1.65198 44.097L0.311332 43.6832L0.377537 42.4087H6.83251L6.89872 43.6832L5.57462 44.097L9.81173 54.6236H8.62005L12.4434 44.8583L13.5192 47.1755ZM17.3922 58.0662L11.4338 44.097L10.0931 43.6832L10.1759 42.4087H16.8129L16.8957 43.6832L15.224 44.097L19.4776 54.6236H18.4846L22.4238 44.097L20.5866 43.6832L20.6693 42.4087H26.0154L26.0981 43.6832L24.7078 44.097L18.7659 58.0662H17.3922ZM33.2317 58.1986C32.0069 58.1986 30.9311 57.9503 30.0042 57.4538C29.0774 56.9462 28.3546 56.2511 27.836 55.3684C27.3174 54.4746 27.0581 53.4484 27.0581 52.2898C27.0581 51.0099 27.3505 49.912 27.9353 48.9961C28.5201 48.0803 29.2925 47.3796 30.2525 46.8941C31.2125 46.4086 32.2386 46.1659 33.331 46.1659C34.5006 46.1659 35.5268 46.4197 36.4096 46.9272C37.2923 47.4238 37.9819 48.1134 38.4785 48.9961C38.975 49.8789 39.2233 50.8995 39.2233 52.0581C39.2233 53.2167 38.9529 54.2594 38.4123 55.1863C37.8826 56.1132 37.1654 56.8469 36.2606 57.3876C35.3558 57.9283 34.3462 58.1986 33.2317 58.1986ZM33.4965 56.5931C34.2027 56.5931 34.7544 56.2621 35.1517 55.6001C35.5489 54.927 35.7475 54.0056 35.7475 52.836C35.7475 51.3133 35.4882 50.0775 34.9696 49.1285C34.451 48.1796 33.7724 47.7051 32.9338 47.7051C32.2166 47.7051 31.6428 48.0527 31.2125 48.7479C30.7932 49.443 30.5835 50.392 30.5835 51.5947C30.5835 53.0291 30.8594 54.2208 31.4111 55.1697C31.9628 56.1187 32.6579 56.5931 33.4965 56.5931ZM40.7625 58L40.6798 56.8414L42.3349 56.378C42.3459 56.2676 42.3625 55.9642 42.3845 55.4677C42.4176 54.9601 42.4452 54.3698 42.4673 53.6967L42.5004 51.6774C42.5004 51.1478 42.4783 50.6623 42.4342 50.2209C42.3901 49.7796 42.3349 49.3382 42.2687 48.8968L40.5639 48.5161V47.3741L44.9831 46.2155L45.6286 46.6459L45.5127 48.7975L45.5955 48.8141C46.092 47.821 46.6051 47.1479 47.1347 46.7948C47.6754 46.4307 48.2161 46.2486 48.7568 46.2486C49.2202 46.2486 49.6229 46.381 49.965 46.6459C50.3181 46.8996 50.4946 47.2914 50.4946 47.821C50.4946 48.3727 50.3071 48.803 49.9319 49.112C49.5678 49.4099 49.1319 49.5589 48.6244 49.5589C48.2161 49.5589 47.8464 49.4872 47.5154 49.3437C47.1844 49.2003 46.8313 48.9354 46.4561 48.5493L47.1844 48.6486C46.5996 49.0348 46.0975 49.6582 45.6782 50.5188L45.7113 52.6705C45.7224 53.5974 45.7389 54.4029 45.761 55.087C45.7831 55.7601 45.8106 56.1904 45.8438 56.378L48.1444 56.7918L48.0782 58H40.7625ZM61.0212 58.3145L60.3426 57.9503L60.3757 56.2125L60.293 56.1628C59.8295 56.9352 59.322 57.4759 58.7703 57.7848C58.2185 58.0828 57.6558 58.2317 57.082 58.2317C56.1331 58.2317 55.2559 58 54.4504 57.5366C53.6559 57.0621 53.0215 56.4 52.547 55.5504C52.0725 54.7008 51.8353 53.7132 51.8353 52.5877C51.8353 51.2747 52.1442 50.1437 52.7622 49.1947C53.3801 48.2348 54.1745 47.4955 55.1455 46.9769C56.1165 46.4583 57.1317 46.199 58.191 46.199C58.5551 46.199 58.9303 46.2376 59.3164 46.3148C59.7026 46.381 60.0226 46.4859 60.2764 46.6293C60.2764 46.1769 60.2654 45.6528 60.2433 45.0569C60.2323 44.4501 60.2212 43.8818 60.2102 43.3522C60.1992 42.8115 60.1826 42.4198 60.1606 42.177L58.1744 41.8626L58.1082 40.7702L62.9743 39.4957L63.6529 39.9426C63.5977 41.046 63.548 42.0722 63.5039 43.0211C63.4708 43.959 63.4543 44.9466 63.4543 45.9838L63.4212 52.1574C63.4212 53.0291 63.4432 53.7408 63.4874 54.2925C63.5315 54.8442 63.5701 55.3132 63.6032 55.6994L65.3576 56.0966V57.1724L61.0212 58.3145ZM58.2572 55.8152C58.5661 55.8152 58.9082 55.727 59.2833 55.5504C59.6585 55.3628 59.995 55.0539 60.293 54.6236V48.7313C60.0392 48.3672 59.7302 48.1079 59.3661 47.9534C59.002 47.7879 58.6378 47.7051 58.2737 47.7051C57.38 47.7051 56.6572 48.0693 56.1055 48.7975C55.5538 49.5147 55.2779 50.4802 55.2779 51.694C55.2779 53.0291 55.5704 54.0498 56.1552 54.756C56.74 55.4621 57.4406 55.8152 58.2572 55.8152Z" fill="#BFC0C8"/>
<path d="M1.25 114L1.15234 112.496L3.125 112.027C3.17708 111.884 3.22266 111.37 3.26172 110.484C3.30078 109.586 3.32031 108.499 3.32031 107.223V102.418C3.32031 101.103 3.30078 99.9961 3.26172 99.0977C3.22266 98.1992 3.17708 97.6914 3.125 97.5742L1.15234 97.1055L1.25 95.6016H9.39453L9.47266 97.1055L7.5 97.5742C7.4349 97.7174 7.38281 98.2318 7.34375 99.1172C7.31771 100.003 7.30469 101.103 7.30469 102.418V107.223C7.30469 108.486 7.31771 109.566 7.34375 110.465C7.38281 111.35 7.4349 111.871 7.5 112.027L9.47266 112.496L9.39453 114H1.25ZM22.207 111.5C21.8555 112.372 21.2826 113.056 20.4883 113.551C19.694 114.033 18.8086 114.273 17.832 114.273C16.4128 114.273 15.2474 113.863 14.3359 113.043C13.4375 112.223 12.9883 110.973 12.9883 109.293L13.0664 102.223H10.8789V101.305L16.0352 97.1445H16.9336L16.8555 101.422L16.7969 108.902C16.7969 109.827 17.0117 110.491 17.4414 110.895C17.8711 111.285 18.4766 111.48 19.2578 111.48C20.0651 111.48 20.7943 111.188 21.4453 110.602L22.207 111.5ZM15.4102 102.223V100.309H21.3281V102.223H15.4102ZM34.082 114.234C33.1315 114.234 32.3112 114.039 31.6211 113.648C30.944 113.245 30.4167 112.757 30.0391 112.184C29.6745 111.611 29.4922 111.057 29.4922 110.523C29.4922 109.065 30.4622 108.043 32.4023 107.457L37.2852 105.973V104.781C37.2852 104.104 36.9727 103.499 36.3477 102.965C35.7227 102.431 35.013 102.164 34.2188 102.164C33.8281 102.164 33.5612 102.255 33.418 102.438C33.2747 102.607 33.1836 102.926 33.1445 103.395L33.0078 105.211C32.0182 105.419 31.2044 105.387 30.5664 105.113C29.9284 104.84 29.6094 104.391 29.6094 103.766C29.6094 103.375 29.8047 102.978 30.1953 102.574C30.5859 102.158 31.0807 101.773 31.6797 101.422C32.2917 101.057 32.9167 100.751 33.5547 100.504C34.2057 100.257 34.7786 100.1 35.2734 100.035C37.0703 100.035 38.4961 100.458 39.5508 101.305C40.6185 102.138 41.1589 103.258 41.1719 104.664L41.0742 109.176C41.0742 110.257 41.1589 110.966 41.3281 111.305L43.3594 111.695V112.965L41.4062 113.785C40.638 114.085 40.0195 114.234 39.5508 114.234C38.7695 114.234 38.2227 113.837 37.9102 113.043L37.4023 111.617L38.0273 111.734C36.6862 113.401 35.3711 114.234 34.082 114.234ZM35.5469 111.617C36.1849 111.617 36.7773 111.344 37.3242 110.797V107.691L34.9609 108.18C33.9974 108.349 33.5156 108.844 33.5156 109.664C33.5156 110.159 33.7174 110.608 34.1211 111.012C34.5247 111.415 35 111.617 35.5469 111.617ZM44.2383 114L44.1406 112.574L46.1719 112.086C46.2109 111.76 46.25 111.064 46.2891 109.996C46.3411 108.928 46.3672 107.809 46.3672 106.637V102.672C46.3672 101.695 46.3607 100.719 46.3477 99.7422C46.3346 98.7656 46.3151 97.8802 46.2891 97.0859C46.263 96.2917 46.2305 95.6862 46.1914 95.2695L43.8672 94.957L43.8086 93.668L49.5508 92.1641L50.3711 92.6914C50.332 93.5638 50.2995 94.4167 50.2734 95.25C50.2474 96.0833 50.2279 97.0273 50.2148 98.082C50.2148 99.1237 50.2148 100.4 50.2148 101.91L50.1758 106.598C50.1758 108.017 50.1823 109.234 50.1953 110.25C50.2214 111.253 50.2604 111.865 50.3125 112.086L52.3438 112.574L52.2852 114H44.2383ZM53.457 114L53.3594 112.574L55.3906 112.086C55.4297 111.76 55.4688 111.064 55.5078 109.996C55.5599 108.928 55.5859 107.809 55.5859 106.637V102.672C55.5859 101.695 55.5794 100.719 55.5664 99.7422C55.5534 98.7656 55.5339 97.8802 55.5078 97.0859C55.4818 96.2917 55.4492 95.6862 55.4102 95.2695L53.0859 94.957L53.0273 93.668L58.7695 92.1641L59.5898 92.6914C59.5508 93.5638 59.5182 94.4167 59.4922 95.25C59.4661 96.0833 59.4466 97.0273 59.4336 98.082C59.4336 99.1237 59.4336 100.4 59.4336 101.91L59.3945 106.598C59.3945 108.017 59.401 109.234 59.4141 110.25C59.4401 111.253 59.4792 111.865 59.5312 112.086L61.5625 112.574L61.5039 114H53.457ZM74.2773 114.234C73.418 114.234 72.5651 114.143 71.7188 113.961C70.8724 113.766 70.1628 113.512 69.5898 113.199L69.4336 109.586H71.3672L72.0312 111.852C72.7865 112.32 73.6133 112.555 74.5117 112.555C75.1497 112.555 75.6445 112.418 75.9961 112.145C76.3607 111.871 76.543 111.507 76.543 111.051C76.543 110.556 76.3542 110.139 75.9766 109.801C75.612 109.462 74.8633 109.072 73.7305 108.629C72.207 108.056 71.1393 107.444 70.5273 106.793C69.9154 106.129 69.6094 105.302 69.6094 104.312C69.6094 103.062 70.1693 102.04 71.2891 101.246C72.4219 100.439 73.8932 100.035 75.7031 100.035C76.3542 100.035 77.0117 100.1 77.6758 100.23C78.3529 100.348 78.9193 100.504 79.375 100.699L79.7266 104.273H77.793L77.1094 102.066C76.6406 101.793 76.0938 101.656 75.4688 101.656C74.8177 101.656 74.2969 101.806 73.9062 102.105C73.5286 102.392 73.3398 102.763 73.3398 103.219C73.3398 103.753 73.5677 104.195 74.0234 104.547C74.4792 104.885 75.319 105.309 76.543 105.816C77.9232 106.376 78.8997 106.975 79.4727 107.613C80.0586 108.251 80.3516 109.033 80.3516 109.957C80.3516 111.246 79.7852 112.281 78.6523 113.062C77.5326 113.844 76.0742 114.234 74.2773 114.234ZM92.7539 111.5C92.4023 112.372 91.8294 113.056 91.0352 113.551C90.2409 114.033 89.3555 114.273 88.3789 114.273C86.9596 114.273 85.7943 113.863 84.8828 113.043C83.9844 112.223 83.5352 110.973 83.5352 109.293L83.6133 102.223H81.4258V101.305L86.582 97.1445H87.4805L87.4023 101.422L87.3438 108.902C87.3438 109.827 87.5586 110.491 87.9883 110.895C88.418 111.285 89.0234 111.48 89.8047 111.48C90.612 111.48 91.3411 111.188 91.9922 110.602L92.7539 111.5ZM85.957 102.223V100.309H91.875V102.223H85.957ZM98.5742 114.234C97.6237 114.234 96.8034 114.039 96.1133 113.648C95.4362 113.245 94.9089 112.757 94.5312 112.184C94.1667 111.611 93.9844 111.057 93.9844 110.523C93.9844 109.065 94.9544 108.043 96.8945 107.457L101.777 105.973V104.781C101.777 104.104 101.465 103.499 100.84 102.965C100.215 102.431 99.5052 102.164 98.7109 102.164C98.3203 102.164 98.0534 102.255 97.9102 102.438C97.7669 102.607 97.6758 102.926 97.6367 103.395L97.5 105.211C96.5104 105.419 95.6966 105.387 95.0586 105.113C94.4206 104.84 94.1016 104.391 94.1016 103.766C94.1016 103.375 94.2969 102.978 94.6875 102.574C95.0781 102.158 95.5729 101.773 96.1719 101.422C96.7839 101.057 97.4089 100.751 98.0469 100.504C98.6979 100.257 99.2708 100.1 99.7656 100.035C101.562 100.035 102.988 100.458 104.043 101.305C105.111 102.138 105.651 103.258 105.664 104.664L105.566 109.176C105.566 110.257 105.651 110.966 105.82 111.305L107.852 111.695V112.965L105.898 113.785C105.13 114.085 104.512 114.234 104.043 114.234C103.262 114.234 102.715 113.837 102.402 113.043L101.895 111.617L102.52 111.734C101.178 113.401 99.8633 114.234 98.5742 114.234ZM100.039 111.617C100.677 111.617 101.27 111.344 101.816 110.797V107.691L99.4531 108.18C98.4896 108.349 98.0078 108.844 98.0078 109.664C98.0078 110.159 98.2096 110.608 98.6133 111.012C99.0169 111.415 99.4922 111.617 100.039 111.617ZM108.848 114L108.75 112.633L110.703 112.086C110.716 111.956 110.736 111.598 110.762 111.012C110.801 110.413 110.833 109.716 110.859 108.922L110.898 106.539C110.898 105.914 110.872 105.341 110.82 104.82C110.768 104.299 110.703 103.779 110.625 103.258L108.613 102.809V101.461L113.828 100.094L114.59 100.602L114.453 103.141L114.551 103.16C115.137 101.988 115.742 101.194 116.367 100.777C117.005 100.348 117.643 100.133 118.281 100.133C118.828 100.133 119.303 100.289 119.707 100.602C120.124 100.901 120.332 101.363 120.332 101.988C120.332 102.639 120.111 103.147 119.668 103.512C119.238 103.863 118.724 104.039 118.125 104.039C117.643 104.039 117.207 103.954 116.816 103.785C116.426 103.616 116.009 103.303 115.566 102.848L116.426 102.965C115.736 103.421 115.143 104.156 114.648 105.172L114.688 107.711C114.701 108.805 114.72 109.755 114.746 110.562C114.772 111.357 114.805 111.865 114.844 112.086L117.559 112.574L117.48 114H108.848ZM132.363 111.5C132.012 112.372 131.439 113.056 130.645 113.551C129.85 114.033 128.965 114.273 127.988 114.273C126.569 114.273 125.404 113.863 124.492 113.043C123.594 112.223 123.145 110.973 123.145 109.293L123.223 102.223H121.035V101.305L126.191 97.1445H127.09L127.012 101.422L126.953 108.902C126.953 109.827 127.168 110.491 127.598 110.895C128.027 111.285 128.633 111.48 129.414 111.48C130.221 111.48 130.951 111.188 131.602 110.602L132.363 111.5ZM125.566 102.223V100.309H131.484V102.223H125.566ZM138.34 114.234C137.48 114.234 136.628 114.143 135.781 113.961C134.935 113.766 134.225 113.512 133.652 113.199L133.496 109.586H135.43L136.094 111.852C136.849 112.32 137.676 112.555 138.574 112.555C139.212 112.555 139.707 112.418 140.059 112.145C140.423 111.871 140.605 111.507 140.605 111.051C140.605 110.556 140.417 110.139 140.039 109.801C139.674 109.462 138.926 109.072 137.793 108.629C136.27 108.056 135.202 107.444 134.59 106.793C133.978 106.129 133.672 105.302 133.672 104.312C133.672 103.062 134.232 102.04 135.352 101.246C136.484 100.439 137.956 100.035 139.766 100.035C140.417 100.035 141.074 100.1 141.738 100.23C142.415 100.348 142.982 100.504 143.438 100.699L143.789 104.273H141.855L141.172 102.066C140.703 101.793 140.156 101.656 139.531 101.656C138.88 101.656 138.359 101.806 137.969 102.105C137.591 102.392 137.402 102.763 137.402 103.219C137.402 103.753 137.63 104.195 138.086 104.547C138.542 104.885 139.382 105.309 140.605 105.816C141.986 106.376 142.962 106.975 143.535 107.613C144.121 108.251 144.414 109.033 144.414 109.957C144.414 111.246 143.848 112.281 142.715 113.062C141.595 113.844 140.137 114.234 138.34 114.234ZM168.066 114.117L162.754 102.184L161.25 101.656L161.328 100.27H168.652L168.711 101.656L167.07 102.184L170.352 110.172L169.551 110.152L172.93 102.184L171.289 101.656L171.367 100.27H176.641L176.719 101.656L175.234 102.184L169.375 114.117H168.066ZM158.262 114.117L152.773 102.184L151.309 101.656L151.387 100.27H158.652L158.73 101.656L157.227 102.184L160.664 110.172L159.766 110.152L163.438 102.105L164.531 104.156L159.57 114.117H158.262ZM177.109 114L177.012 112.574L179.102 112.086C179.115 111.969 179.134 111.624 179.16 111.051C179.199 110.478 179.232 109.768 179.258 108.922L179.277 106.637C179.277 105.96 179.251 105.354 179.199 104.82C179.16 104.286 179.102 103.766 179.023 103.258L176.914 102.809V101.461L182.441 100.094L183.242 100.621C183.177 101.285 183.125 101.949 183.086 102.613C183.06 103.277 183.047 104.033 183.047 104.879V108.863C183.047 109.605 183.06 110.289 183.086 110.914C183.112 111.539 183.158 111.93 183.223 112.086L185.293 112.574L185.215 114H177.109ZM181.211 97.3789C180.417 97.3789 179.785 97.138 179.316 96.6562C178.861 96.1745 178.633 95.6081 178.633 94.957C178.633 94.306 178.861 93.7396 179.316 93.2578C179.785 92.763 180.417 92.5156 181.211 92.5156C182.005 92.5156 182.624 92.763 183.066 93.2578C183.509 93.7396 183.73 94.306 183.73 94.957C183.73 95.6081 183.509 96.1745 183.066 96.6562C182.624 97.138 182.005 97.3789 181.211 97.3789ZM197.285 111.5C196.934 112.372 196.361 113.056 195.566 113.551C194.772 114.033 193.887 114.273 192.91 114.273C191.491 114.273 190.326 113.863 189.414 113.043C188.516 112.223 188.066 110.973 188.066 109.293L188.145 102.223H185.957V101.305L191.113 97.1445H192.012L191.934 101.422L191.875 108.902C191.875 109.827 192.09 110.491 192.52 110.895C192.949 111.285 193.555 111.48 194.336 111.48C195.143 111.48 195.872 111.188 196.523 110.602L197.285 111.5ZM190.488 102.223V100.309H196.406V102.223H190.488ZM197.812 114L197.715 112.633L199.648 112.086C199.688 111.747 199.727 111.051 199.766 109.996C199.818 108.928 199.844 107.809 199.844 106.637V102.691C199.844 101.728 199.837 100.758 199.824 99.7812C199.811 98.8047 199.792 97.9193 199.766 97.125C199.74 96.3177 199.707 95.6992 199.668 95.2695L197.344 94.957L197.285 93.668L202.949 92.1641L203.789 92.6914C203.737 93.5378 203.691 94.3776 203.652 95.2109C203.626 96.0443 203.6 97.0273 203.574 98.1602C203.548 99.2799 203.522 100.706 203.496 102.438L203.594 102.457C204.896 100.842 206.426 100.035 208.184 100.035C209.473 100.035 210.573 100.517 211.484 101.48C212.396 102.444 212.852 103.837 212.852 105.66V108.902C212.852 109.618 212.865 110.289 212.891 110.914C212.917 111.526 212.956 111.917 213.008 112.086L214.941 112.633L214.844 114H207.285L207.188 112.633L208.965 112.086C209.004 111.812 209.036 111.383 209.062 110.797C209.089 110.211 209.102 109.605 209.102 108.98V106.207C209.102 104.996 208.828 104.124 208.281 103.59C207.747 103.056 207.116 102.789 206.387 102.789C205.254 102.789 204.316 103.277 203.574 104.254V108.863C203.574 109.671 203.587 110.374 203.613 110.973C203.652 111.559 203.691 111.93 203.73 112.086L205.625 112.633L205.547 114H197.812ZM227.402 114.234C226.452 114.234 225.632 114.039 224.941 113.648C224.264 113.245 223.737 112.757 223.359 112.184C222.995 111.611 222.812 111.057 222.812 110.523C222.812 109.065 223.783 108.043 225.723 107.457L230.605 105.973V104.781C230.605 104.104 230.293 103.499 229.668 102.965C229.043 102.431 228.333 102.164 227.539 102.164C227.148 102.164 226.882 102.255 226.738 102.438C226.595 102.607 226.504 102.926 226.465 103.395L226.328 105.211C225.339 105.419 224.525 105.387 223.887 105.113C223.249 104.84 222.93 104.391 222.93 103.766C222.93 103.375 223.125 102.978 223.516 102.574C223.906 102.158 224.401 101.773 225 101.422C225.612 101.057 226.237 100.751 226.875 100.504C227.526 100.257 228.099 100.1 228.594 100.035C230.391 100.035 231.816 100.458 232.871 101.305C233.939 102.138 234.479 103.258 234.492 104.664L234.395 109.176C234.395 110.257 234.479 110.966 234.648 111.305L236.68 111.695V112.965L234.727 113.785C233.958 114.085 233.34 114.234 232.871 114.234C232.09 114.234 231.543 113.837 231.23 113.043L230.723 111.617L231.348 111.734C230.007 113.401 228.691 114.234 227.402 114.234ZM228.867 111.617C229.505 111.617 230.098 111.344 230.645 110.797V107.691L228.281 108.18C227.318 108.349 226.836 108.844 226.836 109.664C226.836 110.159 227.038 110.608 227.441 111.012C227.845 111.415 228.32 111.617 228.867 111.617ZM259.785 114.117L254.473 102.184L252.969 101.656L253.047 100.27H260.371L260.43 101.656L258.789 102.184L262.07 110.172L261.27 110.152L264.648 102.184L263.008 101.656L263.086 100.27H268.359L268.438 101.656L266.953 102.184L261.094 114.117H259.785ZM249.98 114.117L244.492 102.184L243.027 101.656L243.105 100.27H250.371L250.449 101.656L248.945 102.184L252.383 110.172L251.484 110.152L255.156 102.105L256.25 104.156L251.289 114.117H249.98ZM276.68 114.234C275.234 114.234 273.965 113.941 272.871 113.355C271.777 112.757 270.924 111.936 270.312 110.895C269.701 109.84 269.395 108.629 269.395 107.262C269.395 105.751 269.74 104.456 270.43 103.375C271.12 102.294 272.031 101.467 273.164 100.895C274.297 100.322 275.508 100.035 276.797 100.035C278.177 100.035 279.388 100.335 280.43 100.934C281.471 101.52 282.285 102.333 282.871 103.375C283.457 104.417 283.75 105.621 283.75 106.988C283.75 108.355 283.431 109.586 282.793 110.68C282.168 111.773 281.322 112.639 280.254 113.277C279.186 113.915 277.995 114.234 276.68 114.234ZM276.992 112.34C277.826 112.34 278.477 111.949 278.945 111.168C279.414 110.374 279.648 109.286 279.648 107.906C279.648 106.109 279.342 104.651 278.73 103.531C278.118 102.411 277.318 101.852 276.328 101.852C275.482 101.852 274.805 102.262 274.297 103.082C273.802 103.902 273.555 105.022 273.555 106.441C273.555 108.134 273.88 109.54 274.531 110.66C275.182 111.78 276.003 112.34 276.992 112.34ZM285.566 114L285.469 112.633L287.422 112.086C287.435 111.956 287.454 111.598 287.48 111.012C287.52 110.413 287.552 109.716 287.578 108.922L287.617 106.539C287.617 105.914 287.591 105.341 287.539 104.82C287.487 104.299 287.422 103.779 287.344 103.258L285.332 102.809V101.461L290.547 100.094L291.309 100.602L291.172 103.141L291.27 103.16C291.855 101.988 292.461 101.194 293.086 100.777C293.724 100.348 294.362 100.133 295 100.133C295.547 100.133 296.022 100.289 296.426 100.602C296.842 100.901 297.051 101.363 297.051 101.988C297.051 102.639 296.829 103.147 296.387 103.512C295.957 103.863 295.443 104.039 294.844 104.039C294.362 104.039 293.926 103.954 293.535 103.785C293.145 103.616 292.728 103.303 292.285 102.848L293.145 102.965C292.454 103.421 291.862 104.156 291.367 105.172L291.406 107.711C291.419 108.805 291.439 109.755 291.465 110.562C291.491 111.357 291.523 111.865 291.562 112.086L294.277 112.574L294.199 114H285.566ZM309.473 114.371L308.672 113.941L308.711 111.891L308.613 111.832C308.066 112.743 307.467 113.382 306.816 113.746C306.165 114.098 305.501 114.273 304.824 114.273C303.704 114.273 302.669 114 301.719 113.453C300.781 112.893 300.033 112.112 299.473 111.109C298.913 110.107 298.633 108.941 298.633 107.613C298.633 106.064 298.997 104.729 299.727 103.609C300.456 102.477 301.393 101.604 302.539 100.992C303.685 100.38 304.883 100.074 306.133 100.074C306.562 100.074 307.005 100.12 307.461 100.211C307.917 100.289 308.294 100.413 308.594 100.582C308.594 100.048 308.581 99.4297 308.555 98.7266C308.542 98.0104 308.529 97.3398 308.516 96.7148C308.503 96.0768 308.483 95.6146 308.457 95.3281L306.113 94.957L306.035 93.668L311.777 92.1641L312.578 92.6914C312.513 93.9935 312.454 95.2044 312.402 96.3242C312.363 97.431 312.344 98.5964 312.344 99.8203L312.305 107.105C312.305 108.134 312.331 108.974 312.383 109.625C312.435 110.276 312.48 110.829 312.52 111.285L314.59 111.754V113.023L309.473 114.371ZM306.211 111.422C306.576 111.422 306.979 111.318 307.422 111.109C307.865 110.888 308.262 110.523 308.613 110.016V103.062C308.314 102.633 307.949 102.327 307.52 102.145C307.09 101.949 306.66 101.852 306.23 101.852C305.176 101.852 304.323 102.281 303.672 103.141C303.021 103.987 302.695 105.126 302.695 106.559C302.695 108.134 303.04 109.339 303.73 110.172C304.421 111.005 305.247 111.422 306.211 111.422ZM319.336 114.312C318.568 114.312 317.91 114.059 317.363 113.551C316.829 113.03 316.562 112.385 316.562 111.617C316.562 110.849 316.829 110.204 317.363 109.684C317.91 109.15 318.568 108.883 319.336 108.883C320.117 108.883 320.775 109.15 321.309 109.684C321.842 110.204 322.109 110.849 322.109 111.617C322.109 112.385 321.842 113.03 321.309 113.551C320.775 114.059 320.117 114.312 319.336 114.312ZM328.008 114.312C327.24 114.312 326.582 114.059 326.035 113.551C325.501 113.03 325.234 112.385 325.234 111.617C325.234 110.849 325.501 110.204 326.035 109.684C326.582 109.15 327.24 108.883 328.008 108.883C328.789 108.883 329.447 109.15 329.98 109.684C330.514 110.204 330.781 110.849 330.781 111.617C330.781 112.385 330.514 113.03 329.98 113.551C329.447 114.059 328.789 114.312 328.008 114.312ZM336.68 114.312C335.911 114.312 335.254 114.059 334.707 113.551C334.173 113.03 333.906 112.385 333.906 111.617C333.906 110.849 334.173 110.204 334.707 109.684C335.254 109.15 335.911 108.883 336.68 108.883C337.461 108.883 338.118 109.15 338.652 109.684C339.186 110.204 339.453 110.849 339.453 111.617C339.453 112.385 339.186 113.03 338.652 113.551C338.118 114.059 337.461 114.312 336.68 114.312Z" fill="#BFC0C8"/>
<defs>
<linearGradient id="paint0_linear_276_1779" x1="0" y1="35" x2="337" y2="35" gradientUnits="userSpaceOnUse">
<stop stop-color="#3F3F4C"/>
<stop offset="1" stop-color="#0E0F19" stop-opacity="0"/>
</linearGradient>
</defs>
</svg>
